<svg width="465" height="236" viewBox="0 0 465 236" fill="none" xmlns="http://www.w3.org/2000/svg">
<path fill-rule="evenodd" clip-rule="evenodd" d="M106.017 0C106.689 0 107.36 0 107.936 0.0959968H138.943V11.7116C150.751 21.2153 158.239 35.9028 158.239 52.2222C158.239 68.6377 150.751 83.2292 138.943 92.7329V104.444H108.32C107.552 104.444 106.785 104.444 106.017 104.444C77.2175 104.444 53.7943 81.1173 53.7943 52.2222C53.7943 23.4232 77.2175 0 106.017 0Z" fill="black"/>
<path d="M138.847 104.444C167.689 104.444 191.07 81.0638 191.07 52.2222C191.07 23.3807 167.689 0 138.847 0C110.006 0 86.6252 23.3807 86.6252 52.2222C86.6252 81.0638 110.006 104.444 138.847 104.444Z" fill="#ED3237"/>
<path d="M134.048 33.0229C130.592 29.567 130.592 23.9032 134.048 20.3513C137.6 16.8954 143.263 16.8954 146.719 20.3513L172.254 45.8864C175.806 49.4383 175.806 55.1021 172.254 58.558L146.719 84.0932C143.263 87.549 137.6 87.549 134.048 84.0932C130.592 80.6373 130.592 74.8775 134.048 71.4216L144.319 61.1499H111.68C106.689 61.1499 102.753 57.1181 102.753 52.2222C102.753 47.2304 106.689 43.2945 111.68 43.2945H144.319L134.048 33.0229Z" fill="#FEFEFE"/>
<path d="M18.1795 221.464H10.3078L9.15585 228.088H18.2755L17.8916 230.104H6.37195L9.63584 211.385H21.0595L20.6755 213.401H11.6518L10.6918 219.449H18.4675L18.1795 221.464Z" fill="black"/>
<path d="M28.9311 216.185L28.6432 217.721C29.7951 216.473 31.2351 215.897 32.867 215.897C33.731 215.993 34.499 216.185 35.0749 216.569C35.6509 216.953 36.1309 217.433 36.3229 218.201C37.6669 216.665 39.2028 215.897 40.9307 215.897C42.3707 215.993 43.3307 216.473 44.0026 217.337C44.6746 218.201 44.9626 219.449 44.7706 220.985L43.2347 230.104H40.9307L42.4667 220.985C42.4667 220.505 42.4667 220.121 42.4667 219.737C42.2747 218.585 41.5067 218.009 40.1628 217.913C39.2988 217.913 38.5308 218.201 37.8588 218.681C37.1869 219.257 36.7069 220.025 36.5149 220.889L34.9789 230.104H32.579L34.115 220.985C34.211 220.025 34.115 219.257 33.731 218.777C33.347 218.201 32.675 218.009 31.811 218.009C30.3711 217.913 29.2191 218.585 28.3552 219.929L26.6272 230.104H24.3233L26.7232 216.185H28.9311Z" fill="black"/>
<path d="M63.106 223.192C62.914 224.632 62.53 225.88 61.954 227.032C61.3781 228.184 60.6101 228.952 59.7461 229.528C58.8821 230.104 57.9222 230.392 56.8662 230.296C55.2343 230.296 53.9863 229.72 53.1223 228.76L51.8744 235.384H49.5705L52.9304 216.185H55.0423L54.7543 217.721C55.9063 216.473 57.2502 215.897 58.8821 215.897C60.2261 215.993 61.2821 216.473 61.954 217.433C62.722 218.393 63.106 219.641 63.202 221.369C63.202 221.849 63.202 222.425 63.106 222.904V223.192ZM60.8021 222.904V221.849C60.8021 220.601 60.6101 219.641 60.1301 218.969C59.6501 218.393 58.9781 218.009 58.1142 218.009C56.7702 217.913 55.6183 218.585 54.5623 219.833L53.4103 226.552C53.9863 227.704 54.8503 228.376 56.1942 228.376C57.3462 228.472 58.4022 227.992 59.1701 227.032C60.0341 226.168 60.5141 224.728 60.8021 222.904Z" fill="black"/>
<path d="M76.3536 215.897C77.5055 215.993 78.4655 216.281 79.3295 216.857C80.1934 217.529 80.7694 218.393 81.1534 219.449C81.5374 220.505 81.7294 221.753 81.5374 223V223.288C81.3454 224.632 80.9614 225.88 80.2894 226.936C79.7135 227.992 78.8495 228.856 77.8895 229.528C76.8335 230.104 75.6816 230.392 74.5296 230.296C73.3777 230.296 72.3217 230.008 71.5537 229.432C70.6898 228.76 70.1138 227.896 69.7298 226.84C69.3458 225.784 69.1538 224.632 69.2498 223.384C69.4418 221.945 69.8258 220.601 70.4018 219.545C71.0737 218.393 71.9377 217.433 72.9937 216.857C73.9536 216.185 75.1056 215.897 76.3536 215.897ZM71.6497 223.384C71.5537 223.96 71.5537 224.536 71.6497 225.112C71.6497 226.072 72.0337 226.936 72.5137 227.512C72.9937 228.088 73.7617 228.376 74.6256 228.472C75.3936 228.472 76.0656 228.28 76.7376 227.896C77.4095 227.416 77.8895 226.84 78.3695 225.976C78.8495 225.208 79.1375 224.248 79.2335 223.288C79.3295 222.521 79.3295 221.849 79.2335 221.273C79.1375 220.217 78.8495 219.449 78.2735 218.873C77.7935 218.201 77.1215 217.913 76.2576 217.913C75.0096 217.817 74.0496 218.297 73.1857 219.257C72.3217 220.313 71.8417 221.561 71.6497 223.096V223.384Z" fill="black"/>
<path d="M99.4888 226.84L103.905 216.185H106.305L99.9687 230.104H98.0488L96.6089 219.545L91.617 230.104H89.6971L88.2571 216.185H90.4651L91.329 226.552L96.2249 216.185H98.0488L99.4888 226.84Z" fill="black"/>
<path d="M116 230.296C114.272 230.296 112.928 229.72 111.872 228.472C110.912 227.224 110.528 225.592 110.72 223.672V223.096C110.912 221.753 111.296 220.505 111.968 219.353C112.64 218.201 113.504 217.337 114.464 216.761C115.424 216.185 116.48 215.897 117.536 215.897C118.976 215.993 120.128 216.473 120.896 217.337C121.76 218.297 122.144 219.545 122.24 221.081C122.24 221.657 122.24 222.233 122.24 222.808L122.048 223.864H113.024C112.832 225.112 113.024 226.168 113.6 227.032C114.176 227.896 115.04 228.376 116.192 228.376C117.536 228.472 118.784 227.8 119.936 226.552L121.28 227.704C120.704 228.568 119.936 229.144 119.072 229.624C118.112 230.104 117.056 230.392 116 230.296ZM117.44 217.913C116.48 217.817 115.616 218.201 114.944 218.873C114.176 219.545 113.696 220.505 113.216 221.849H120.032V221.657C120.128 220.601 120.032 219.737 119.552 218.969C119.072 218.297 118.304 217.913 117.44 217.913Z" fill="black"/>
<path d="M135.872 218.297L134.816 218.201C133.376 218.201 132.128 218.873 131.264 220.217L129.632 230.104H127.232L129.728 216.185H131.936L131.552 217.817C132.608 216.473 133.76 215.897 135.104 215.897C135.392 215.897 135.68 215.993 136.16 216.089L135.872 218.297Z" fill="black"/>
<path d="M153.631 220.793L159.967 211.385H162.847L154.495 223.192L153.247 230.104H150.847L152.095 223L147.967 211.385H150.559L153.631 220.793Z" fill="black"/>
<path d="M172.158 215.897C173.31 215.993 174.366 216.281 175.134 216.857C175.998 217.529 176.574 218.393 176.958 219.449C177.438 220.505 177.534 221.753 177.438 223L177.342 223.288C177.246 224.632 176.766 225.88 176.19 226.936C175.518 227.992 174.654 228.856 173.694 229.528C172.638 230.104 171.582 230.392 170.334 230.296C169.182 230.296 168.222 230.008 167.358 229.432C166.495 228.76 165.919 227.896 165.535 226.84C165.151 225.784 164.959 224.632 165.151 223.384C165.247 221.945 165.631 220.601 166.303 219.545C166.974 218.393 167.742 217.433 168.798 216.857C169.854 216.185 170.91 215.897 172.158 215.897ZM167.454 223.384C167.358 223.96 167.358 224.536 167.454 225.112C167.55 226.072 167.838 226.936 168.318 227.512C168.894 228.088 169.566 228.376 170.43 228.472C171.198 228.472 171.87 228.28 172.542 227.896C173.214 227.416 173.79 226.84 174.174 225.976C174.654 225.208 174.942 224.248 175.038 223.288C175.134 222.521 175.134 221.849 175.134 221.273C175.038 220.217 174.654 219.449 174.174 218.873C173.598 218.201 172.926 217.913 172.062 217.913C170.91 217.817 169.854 218.297 168.99 219.257C168.222 220.313 167.646 221.561 167.454 223.096V223.384Z" fill="black"/>
<path d="M191.646 228.664C190.59 229.816 189.15 230.392 187.518 230.296C186.174 230.296 185.214 229.816 184.542 228.952C183.87 227.992 183.678 226.744 183.87 225.208L185.31 216.185H187.614L186.174 225.208C186.078 225.592 186.078 225.976 186.078 226.264C186.174 226.936 186.366 227.416 186.654 227.8C187.038 228.088 187.422 228.28 187.998 228.28C189.726 228.376 190.974 227.704 191.838 226.264L193.662 216.185H195.966L193.566 230.104H191.358L191.646 228.664Z" fill="black"/>
<path d="M209.309 218.297L208.253 218.201C206.717 218.201 205.565 218.873 204.701 220.217L202.973 230.104H200.669L203.069 216.185H205.373L204.989 217.817C205.949 216.473 207.101 215.897 208.445 215.897C208.733 215.897 209.117 215.993 209.597 216.089L209.309 218.297Z" fill="black"/>
<path d="M230.428 225.304C230.62 223.864 229.948 222.904 228.316 222.232L226.108 221.465L225.341 221.177C222.845 220.025 221.693 218.393 221.885 216.377C221.885 215.321 222.269 214.361 222.941 213.593C223.517 212.825 224.381 212.153 225.341 211.769C226.396 211.289 227.548 211.097 228.7 211.097C229.852 211.193 230.812 211.385 231.676 211.865C232.54 212.345 233.212 213.017 233.692 213.881C234.172 214.745 234.364 215.705 234.364 216.761H231.868C231.964 215.609 231.772 214.745 231.1 214.169C230.524 213.497 229.66 213.209 228.604 213.113C227.356 213.113 226.396 213.401 225.629 213.977C224.861 214.553 224.381 215.321 224.285 216.281C224.093 217.529 224.861 218.489 226.588 219.161L228.508 219.833L229.468 220.313C231.868 221.369 233.02 223.096 232.828 225.208C232.732 226.264 232.444 227.224 231.772 227.992C231.196 228.76 230.332 229.336 229.276 229.72C228.22 230.2 227.068 230.392 225.821 230.296C224.669 230.296 223.613 230.104 222.653 229.624C221.693 229.144 220.925 228.472 220.445 227.608C219.965 226.744 219.677 225.784 219.773 224.632H222.173C222.077 225.784 222.365 226.648 223.133 227.32C223.805 227.992 224.765 228.376 226.013 228.376C227.164 228.376 228.22 228.088 228.988 227.512C229.852 226.936 230.332 226.264 230.428 225.304Z" fill="black"/>
<path d="M246.268 215.897C247.42 215.993 248.38 216.281 249.244 216.857C250.012 217.529 250.684 218.393 251.068 219.449C251.452 220.505 251.548 221.753 251.452 223V223.288C251.26 224.632 250.876 225.88 250.204 226.936C249.628 227.992 248.764 228.856 247.708 229.528C246.748 230.104 245.596 230.392 244.348 230.296C243.196 230.296 242.236 230.008 241.372 229.432C240.604 228.76 239.932 227.896 239.548 226.84C239.164 225.784 239.068 224.632 239.164 223.384C239.26 221.945 239.644 220.601 240.316 219.545C240.988 218.393 241.852 217.433 242.812 216.857C243.868 216.185 245.02 215.897 246.268 215.897ZM241.468 223.384C241.468 223.96 241.468 224.536 241.468 225.112C241.564 226.072 241.852 226.936 242.428 227.512C242.908 228.088 243.58 228.376 244.444 228.472C245.212 228.472 245.98 228.28 246.652 227.896C247.228 227.416 247.804 226.84 248.284 225.976C248.668 225.208 248.956 224.248 249.148 223.288C249.148 222.521 249.244 221.849 249.148 221.273C249.052 220.217 248.764 219.449 248.188 218.873C247.708 218.201 247.036 217.913 246.172 217.913C244.924 217.817 243.964 218.297 243.1 219.257C242.236 220.313 241.756 221.561 241.564 223.096L241.468 223.384Z" fill="black"/>
<path d="M259.419 230.104H257.115L260.475 210.329H262.779L259.419 230.104Z" fill="black"/>
<path d="M275.355 230.104C275.355 229.816 275.259 229.624 275.259 229.336L275.355 228.664C274.011 229.816 272.667 230.392 271.323 230.296C270.075 230.296 269.019 229.912 268.251 229.144C267.483 228.376 267.195 227.512 267.291 226.36C267.291 224.824 267.963 223.672 269.211 222.904C270.363 222.041 271.995 221.657 273.915 221.657H276.315L276.507 220.601C276.603 219.737 276.411 219.065 276.027 218.585C275.643 218.105 274.971 217.817 274.203 217.817C273.435 217.817 272.667 218.009 272.091 218.393C271.419 218.873 271.131 219.353 270.939 220.025H268.635C268.731 219.257 269.019 218.489 269.595 217.913C270.171 217.241 270.843 216.761 271.707 216.377C272.571 216.089 273.531 215.897 274.395 215.897C275.835 215.993 276.987 216.377 277.755 217.241C278.619 218.105 278.907 219.161 278.811 220.601L277.659 227.512V228.472C277.563 228.952 277.659 229.432 277.755 229.816V230.104H275.355ZM271.707 228.28C272.475 228.28 273.147 228.088 273.819 227.8C274.491 227.416 275.067 226.84 275.547 226.168L276.027 223.384L274.299 223.288C272.859 223.288 271.707 223.576 270.939 224.056C270.171 224.44 269.691 225.112 269.595 225.976C269.499 226.648 269.691 227.224 270.075 227.608C270.459 228.088 271.035 228.28 271.707 228.28Z" fill="black"/>
<path d="M293.21 218.297L292.154 218.201C290.618 218.201 289.466 218.873 288.602 220.217L286.874 230.104H284.571L286.97 216.185H289.274L288.89 217.817C289.85 216.473 291.002 215.897 292.346 215.897C292.634 215.897 293.018 215.993 293.498 216.089L293.21 218.297Z" fill="black"/>
<path d="M315.577 221.464H307.706L306.554 228.088H315.673L315.385 230.104H303.866L307.034 211.385H318.457L318.073 213.401H309.146L308.09 219.449H315.961L315.577 221.464Z" fill="black"/>
<path d="M326.329 216.185L326.041 217.913C327.289 216.569 328.729 215.897 330.265 215.897C331.609 215.993 332.569 216.473 333.241 217.337C333.817 218.201 334.009 219.449 333.913 220.985L332.377 230.104H330.073L331.609 220.985C331.609 220.505 331.609 220.121 331.609 219.833C331.417 218.585 330.745 218.009 329.497 218.009C328.057 217.913 326.905 218.681 325.849 220.217L324.121 230.104H321.721L324.217 216.185H326.329Z" fill="black"/>
<path d="M345.816 212.825L345.24 216.185H347.736L347.448 218.009H344.856L343.417 226.648C343.417 226.936 343.417 227.128 343.417 227.32C343.513 227.992 343.897 228.28 344.473 228.28C344.76 228.28 345.144 228.28 345.624 228.184L345.432 230.104C344.952 230.2 344.377 230.296 343.801 230.296C342.841 230.296 342.169 230.008 341.689 229.336C341.209 228.664 341.017 227.704 341.113 226.648L342.553 218.009H340.153L340.441 216.185H342.841L343.513 212.825H345.816Z" fill="black"/>
<path d="M357.816 230.296C356.088 230.296 354.744 229.72 353.784 228.472C352.824 227.224 352.344 225.592 352.536 223.672L352.632 223.096C352.728 221.753 353.112 220.505 353.784 219.353C354.456 218.201 355.32 217.337 356.28 216.761C357.24 216.185 358.296 215.897 359.352 215.897C360.792 215.993 361.944 216.473 362.808 217.337C363.576 218.297 364.056 219.545 364.056 221.081C364.152 221.657 364.152 222.233 364.056 222.808L363.864 223.864H354.84C354.648 225.112 354.84 226.168 355.416 227.032C355.992 227.896 356.856 228.376 358.008 228.376C359.352 228.472 360.6 227.8 361.752 226.552L363.096 227.704C362.52 228.568 361.848 229.144 360.888 229.624C359.928 230.104 358.968 230.392 357.816 230.296ZM359.256 217.913C358.296 217.817 357.528 218.201 356.76 218.873C356.088 219.545 355.512 220.505 355.032 221.849H361.848V221.657C362.04 220.601 361.848 219.737 361.368 218.969C360.888 218.297 360.216 217.913 359.256 217.913Z" fill="black"/>
<path d="M377.783 218.297L376.631 218.201C375.191 218.201 374.04 218.873 373.176 220.217L371.448 230.104H369.144L371.544 216.185H373.752L373.464 217.817C374.423 216.473 375.575 215.897 376.919 215.897C377.207 215.897 377.591 215.993 377.975 216.089L377.783 218.297Z" fill="black"/>
<path d="M394.103 223.192C394.007 224.632 393.623 225.88 392.951 227.032C392.375 228.184 391.703 228.952 390.839 229.528C389.879 230.104 388.919 230.392 387.863 230.296C386.327 230.296 385.079 229.72 384.215 228.76L382.967 235.384H380.663L383.927 216.185H386.039L385.847 217.721C386.999 216.473 388.343 215.897 389.975 215.897C391.223 215.993 392.279 216.473 393.047 217.433C393.815 218.393 394.199 219.641 394.199 221.369C394.199 221.849 394.199 222.425 394.199 222.904L394.103 223.192ZM391.799 222.904L391.895 221.849C391.895 220.601 391.703 219.641 391.223 218.969C390.743 218.393 390.071 218.009 389.111 218.009C387.767 217.913 386.615 218.585 385.655 219.833L384.503 226.552C384.983 227.704 385.943 228.376 387.287 228.376C388.439 228.472 389.399 227.992 390.263 227.032C391.031 226.168 391.607 224.728 391.799 222.904Z" fill="black"/>
<path d="M408.31 218.297L407.254 218.201C405.718 218.201 404.566 218.873 403.703 220.217L401.975 230.104H399.671L402.071 216.185H404.374L403.991 217.817C404.95 216.473 406.102 215.897 407.446 215.897C407.734 215.897 408.118 215.993 408.598 216.089L408.31 218.297Z" fill="black"/>
<path d="M414.646 230.104H412.342L414.742 216.185H417.046L414.646 230.104ZM416.566 211.193C416.95 211.097 417.238 211.289 417.526 211.481C417.814 211.769 417.91 212.057 417.91 212.537C417.91 212.921 417.814 213.209 417.526 213.497C417.238 213.785 416.95 213.881 416.566 213.881C416.182 213.881 415.798 213.785 415.606 213.593C415.318 213.305 415.222 213.017 415.222 212.537C415.222 212.153 415.318 211.865 415.606 211.577C415.798 211.289 416.182 211.193 416.566 211.193Z" fill="black"/>
<path d="M430.774 226.36C430.87 225.4 430.294 224.728 429.142 224.344L426.742 223.576C424.726 222.904 423.766 221.753 423.766 220.121C423.862 218.873 424.438 217.913 425.494 217.049C426.55 216.281 427.798 215.897 429.238 215.897C430.582 215.993 431.734 216.377 432.598 217.145C433.462 218.009 433.942 218.969 433.846 220.313H431.542C431.542 219.545 431.35 219.065 430.87 218.585C430.486 218.201 429.814 217.913 429.142 217.913C428.278 217.913 427.606 218.105 427.03 218.489C426.454 218.873 426.166 219.353 426.07 220.025C425.974 220.793 426.454 221.369 427.606 221.753L428.758 222.137C430.294 222.521 431.446 223 432.118 223.672C432.79 224.344 433.078 225.208 433.078 226.168C432.982 227.032 432.694 227.8 432.214 228.376C431.638 229.048 430.966 229.528 430.102 229.912C429.334 230.2 428.374 230.392 427.414 230.296C425.974 230.296 424.726 229.912 423.766 229.048C422.806 228.184 422.326 227.128 422.422 225.784H424.726C424.726 226.552 424.918 227.224 425.398 227.704C425.974 228.184 426.646 228.376 427.51 228.376C428.374 228.376 429.046 228.28 429.718 227.896C430.294 227.512 430.678 226.936 430.774 226.36Z" fill="black"/>
<path d="M445.077 230.296C443.349 230.296 442.005 229.72 441.045 228.472C440.085 227.224 439.701 225.592 439.797 223.672L439.893 223.096C439.989 221.753 440.469 220.505 441.141 219.353C441.813 218.201 442.581 217.337 443.541 216.761C444.501 216.185 445.557 215.897 446.709 215.897C448.149 215.993 449.205 216.473 450.069 217.337C450.837 218.297 451.317 219.545 451.413 221.081C451.413 221.657 451.413 222.233 451.317 222.808L451.221 223.864H442.101C442.005 225.112 442.197 226.168 442.773 227.032C443.349 227.896 444.117 228.376 445.269 228.376C446.709 228.472 447.957 227.8 449.109 226.552L450.453 227.704C449.877 228.568 449.109 229.144 448.149 229.624C447.285 230.104 446.229 230.392 445.077 230.296ZM446.613 217.913C445.653 217.817 444.789 218.201 444.021 218.873C443.349 219.545 442.773 220.505 442.389 221.849H449.109L449.205 221.657C449.301 220.601 449.109 219.737 448.629 218.969C448.149 218.297 447.477 217.913 446.613 217.913Z" fill="black"/>
<path d="M18.7555 186.426C12.2277 186.426 7.3319 184.698 3.97201 181.242C0.612126 177.786 -0.539835 173.178 0.228139 167.418C0.324135 166.746 0.516129 165.69 0.804119 164.25C1.09211 163.002 1.2841 161.755 1.66809 160.507C1.76409 160.123 2.14807 159.835 2.43606 159.547C2.82005 159.259 3.10804 159.067 3.58803 159.067C8.86785 159.067 14.2437 159.067 19.7155 159.067C20.5795 159.067 21.0594 159.547 20.8674 160.507C20.6754 161.467 20.2915 162.331 20.0995 163.29C20.0035 163.674 19.9075 164.058 19.8115 164.442C19.5235 165.978 19.8115 167.226 20.3875 168.09C21.0594 169.05 22.0194 169.53 23.1714 169.53C24.7073 169.53 26.1473 168.858 27.3952 167.61C28.5472 166.458 29.4112 164.826 29.6031 162.81C29.7951 161.275 29.4112 159.835 28.3552 158.395C27.2992 156.955 25.1873 154.747 22.1154 151.963C19.1395 149.179 16.7396 146.875 15.0116 144.859C13.2837 142.939 11.9397 140.443 10.8838 137.563C9.82781 134.683 9.44383 131.324 10.0198 127.58C10.6918 122.396 12.4197 117.788 15.2996 113.756C18.0835 109.628 21.7314 106.556 26.0513 104.252C30.4671 102.045 35.171 100.893 40.2588 100.893C46.7866 100.893 51.6824 102.717 54.9463 106.364C58.3062 110.012 59.5541 114.812 58.7862 120.86C58.6902 121.628 58.4982 122.78 58.0182 124.316C57.8262 125.276 57.5382 126.236 57.3462 127.196C57.2502 127.58 56.9622 127.964 56.5782 128.252C56.1942 128.54 55.9063 128.636 55.4263 128.636C50.1465 128.636 44.7706 128.636 39.4908 128.636C38.5308 128.636 38.1469 128.156 38.3388 127.196C38.5308 126.044 39.0108 124.988 39.2988 123.836C39.6828 122.108 39.5868 120.668 39.0108 119.612C38.3388 118.46 37.2829 117.884 35.8429 117.884C34.307 117.884 32.963 118.652 31.7151 119.9C30.4671 121.34 29.6991 122.972 29.4112 125.084C29.1232 126.716 29.5071 128.348 30.5631 129.884C31.6191 131.516 33.635 133.531 36.5149 136.315C40.1628 139.675 42.7547 142.459 44.4826 144.571C46.2106 146.683 47.5545 148.987 48.5145 151.387C49.3785 153.787 49.6665 156.571 49.1865 159.739C49.1865 160.315 48.9945 161.467 48.6105 163.002C46.7866 170.202 43.0427 175.866 37.5709 180.09C32.0991 184.314 25.8593 186.426 18.7555 186.426ZM92.769 125.18C92.865 124.796 93.153 124.508 93.441 124.124C93.729 123.932 94.113 123.74 94.4969 123.74C99.9688 123.74 105.441 123.74 111.008 123.74C111.392 123.74 111.68 123.836 111.968 124.124C112.16 124.412 112.16 124.796 112.064 125.18C109.472 134.971 106.881 144.859 104.385 154.651C101.889 164.442 99.3928 174.234 96.8009 184.026C96.7049 184.506 96.4169 184.794 96.1289 185.082C95.7449 185.37 95.3609 185.466 95.0729 185.466C89.5051 185.466 84.0333 185.466 78.5615 185.466C78.1775 185.466 77.8895 185.37 77.6975 185.082C77.5055 184.794 77.4095 184.506 77.6015 184.026C77.6975 183.546 77.8895 183.066 77.9855 182.49C78.0815 182.01 77.8895 181.818 77.3135 182.394C75.6816 183.834 74.0496 184.986 72.2257 185.562C70.4978 186.138 68.4818 186.426 66.2739 186.426C62.146 186.426 58.8822 185.274 56.4822 182.874C54.0823 180.474 53.2183 176.73 53.9863 171.738C54.0823 171.162 54.1783 170.01 54.5623 168.378C56.3862 161.179 58.3062 153.979 60.2261 146.779C62.05 139.579 63.97 132.38 65.7939 125.18C65.8899 124.796 66.1779 124.508 66.4659 124.124C66.7539 123.932 67.1379 123.74 67.5219 123.74C72.9937 123.74 78.4655 123.74 83.9373 123.74C84.4173 123.74 84.7053 123.836 84.8973 124.124C85.0893 124.412 85.0893 124.796 84.9933 125.18C83.2653 131.612 81.6334 138.139 80.0014 144.571C78.2735 151.099 76.7376 157.531 75.0096 163.962C74.9136 164.442 74.7216 164.922 74.7216 165.594C74.3376 168.09 75.2016 169.338 77.3135 169.338C80.0014 169.338 81.8254 167.514 82.7853 163.866C84.4173 157.435 86.0492 151.003 87.6812 144.571C89.4091 138.139 91.0411 131.612 92.769 125.18ZM151.423 122.78C156.127 122.78 159.487 124.124 161.407 126.908C163.327 129.692 163.999 133.627 163.327 138.715C163.039 140.251 162.751 141.979 162.175 143.803C160.447 150.523 158.719 157.243 156.991 163.962C155.263 170.682 153.535 177.402 151.807 184.026C151.711 184.506 151.423 184.794 151.135 185.082C150.751 185.37 150.463 185.466 150.079 185.466C144.511 185.466 139.039 185.466 133.568 185.466C133.184 185.466 132.896 185.37 132.704 185.082C132.512 184.794 132.512 184.506 132.608 184.026C134.24 177.594 135.872 171.066 137.503 164.634C139.135 158.107 140.767 151.579 142.591 145.147C142.687 144.667 142.783 144.187 142.879 143.611C143.263 141.019 142.399 139.771 140.287 139.771C139.039 139.771 137.887 140.251 136.928 141.211C135.968 142.171 135.296 143.515 134.816 145.243C132.992 151.675 131.456 158.203 129.824 164.634C128.192 171.162 126.464 177.594 124.832 184.026C124.736 184.506 124.448 184.794 124.16 185.082C123.872 185.37 123.488 185.466 123.104 185.466C117.536 185.466 112.064 185.466 106.593 185.466C106.209 185.466 105.921 185.37 105.729 185.082C105.537 184.794 105.537 184.506 105.633 184.026C108.128 174.234 110.72 164.442 113.12 154.651C115.616 144.859 118.208 134.971 120.8 125.18C120.896 124.796 121.184 124.508 121.472 124.124C121.856 123.932 122.144 123.74 122.528 123.74C128 123.74 133.472 123.74 139.039 123.74C139.423 123.74 139.711 123.932 139.903 124.124C140.095 124.412 140.191 124.796 139.999 125.18C139.711 125.948 139.519 126.812 139.327 127.58C139.231 127.772 139.327 127.772 139.519 127.772C139.807 127.772 140.191 127.58 140.767 127.1C143.839 124.22 147.391 122.78 151.423 122.78ZM183.87 186.426C177.054 186.426 172.062 184.602 168.702 180.954C165.439 177.306 164.287 172.314 165.055 165.882C165.247 165.018 165.439 163.674 165.823 161.947C167.358 155.899 168.99 149.755 170.526 143.611C172.062 137.563 173.79 131.42 175.326 125.276C177.15 117.788 180.894 111.932 186.462 107.516C191.934 103.101 198.365 100.893 205.661 100.893C212.381 100.893 217.373 102.717 220.733 106.364C224.093 110.012 225.341 114.908 224.573 121.244C224.477 122.012 224.189 123.356 223.805 125.276C223.709 125.66 223.613 126.044 223.517 126.332C223.421 126.812 223.133 127.1 222.845 127.388C222.557 127.676 222.173 127.772 221.789 127.772C216.221 128.06 210.653 128.348 205.085 128.54C204.221 128.54 203.933 128.06 204.125 127.1C204.317 126.044 204.701 124.988 204.989 123.836C205.469 122.012 205.277 120.572 204.701 119.516C204.029 118.364 202.877 117.884 201.341 117.884C199.805 117.884 198.557 118.46 197.309 119.516C196.158 120.572 195.39 122.012 194.91 123.836C193.086 130.46 191.358 137.179 189.726 143.803C187.998 150.427 186.174 157.051 184.638 163.674C184.158 165.402 184.35 166.842 184.926 167.898C185.502 168.954 186.558 169.53 188.094 169.53C189.63 169.53 190.974 168.954 192.222 167.898C193.374 166.746 194.334 165.402 194.718 163.674C195.006 162.523 195.294 161.371 195.582 160.219C195.678 159.739 195.966 159.451 196.254 159.163C196.541 158.875 196.925 158.683 197.309 158.779C202.685 158.971 208.157 159.259 213.629 159.451C214.397 159.451 214.973 159.931 214.685 160.891C214.685 161.275 214.397 161.563 214.301 161.947C212.381 169.338 208.829 175.29 203.165 179.802C197.597 184.218 191.166 186.426 183.87 186.426ZM258.651 125.18C258.747 124.796 259.035 124.412 259.323 124.124C259.707 123.932 259.995 123.74 260.475 123.74C265.947 123.74 271.323 123.74 276.891 123.74C277.275 123.74 277.563 123.836 277.851 124.124C278.043 124.412 278.043 124.796 277.947 125.18C275.355 134.971 272.763 144.859 270.267 154.651C267.675 164.442 265.275 174.234 262.683 184.026C262.587 184.506 262.299 184.794 262.011 185.082C261.723 185.37 261.243 185.466 260.955 185.466C255.388 185.466 249.916 185.466 244.444 185.466C244.06 185.466 243.772 185.37 243.484 185.082C243.292 184.794 243.292 184.506 243.388 184.026C243.676 183.066 244.06 182.01 244.348 180.954C244.444 180.666 244.348 180.474 244.156 180.474C243.964 180.474 243.868 180.666 243.676 180.858C240.508 184.602 236.476 186.426 231.676 186.426C222.557 186.426 218.621 181.338 219.965 171.066C220.253 169.338 220.637 167.514 221.117 165.786C222.077 162.043 222.941 158.299 223.901 154.651C224.861 150.907 225.821 147.163 226.78 143.419C230.428 129.692 237.436 122.78 247.996 122.78C252.796 122.78 255.867 124.7 257.115 128.54C257.211 128.828 257.307 129.02 257.403 128.924C257.595 128.924 257.787 128.732 257.787 128.444C258.075 127.388 258.363 126.236 258.651 125.18ZM243.1 169.53C244.444 169.53 245.5 168.954 246.46 168.09C247.516 167.034 248.188 165.786 248.572 164.25C250.204 157.819 251.836 151.387 253.468 145.051C253.564 144.763 253.66 144.379 253.756 143.803C253.852 142.651 253.756 141.595 253.18 140.923C252.7 140.155 251.836 139.771 250.876 139.771C249.724 139.771 248.668 140.251 247.708 141.211C246.748 142.171 246.172 143.419 245.788 145.051C244.06 151.483 242.332 157.819 240.7 164.25C240.316 165.786 240.412 167.13 240.796 168.09C241.276 169.05 242.044 169.53 243.1 169.53ZM316.441 122.876C318.361 122.876 319.993 123.26 321.145 124.22C321.529 124.604 321.625 125.276 321.337 126.044C318.937 131.612 316.537 137.275 314.234 142.843C313.85 143.707 313.274 144.091 312.506 143.803C311.354 143.515 310.49 143.323 309.722 143.323C308.282 143.323 307.034 143.611 305.786 144.091C304.25 144.571 302.81 145.531 301.562 147.067C300.314 148.603 299.45 150.235 298.874 152.059C297.434 157.339 296.186 162.714 294.842 167.994C293.498 173.37 292.154 178.65 290.714 183.93C290.618 184.314 290.33 184.698 290.042 184.986C289.754 185.274 289.466 185.37 288.986 185.37C283.515 185.37 277.947 185.37 272.475 185.37C272.091 185.37 271.803 185.274 271.611 184.986C271.419 184.698 271.419 184.314 271.515 183.93C274.107 174.138 276.507 164.346 279.003 154.555C281.499 144.763 284.091 134.971 286.682 125.18C286.778 124.796 287.066 124.508 287.354 124.124C287.642 123.932 288.026 123.74 288.41 123.74C293.882 123.74 299.354 123.74 304.922 123.74C305.306 123.74 305.594 123.932 305.786 124.124C305.978 124.412 305.978 124.796 305.882 125.18C305.498 126.428 305.21 127.772 304.922 129.02C304.826 129.308 304.73 129.5 304.826 129.5C304.922 129.596 305.114 129.5 305.306 129.212C308.474 125.084 312.218 122.876 316.441 122.876ZM354.456 136.027C354.36 136.507 354.072 136.795 353.784 137.083C353.496 137.371 353.112 137.467 352.728 137.467C350.616 137.467 348.696 137.467 346.68 137.467C346.296 137.467 346.2 137.659 346.104 138.043C344.952 142.363 343.801 146.587 342.745 150.907C341.689 155.131 340.537 159.355 339.481 163.674C339.385 164.058 339.289 164.538 339.193 164.922C339.001 166.266 339.193 167.226 339.865 167.802C340.537 168.282 341.401 168.474 342.649 168.378C342.841 168.378 342.937 168.378 343.129 168.378C344.088 168.378 344.472 168.954 344.28 169.818C343.225 174.618 341.881 179.322 340.633 184.026C340.537 184.506 340.249 184.794 339.865 185.082C339.577 185.37 339.193 185.466 338.809 185.466C337.081 185.466 335.353 185.466 333.529 185.466C328.057 185.466 324.025 184.698 321.337 183.162C318.745 181.626 317.785 178.65 318.361 174.426C318.361 173.754 318.649 172.794 318.937 171.546C320.473 165.978 321.913 160.411 323.353 154.843C324.793 149.275 326.233 143.707 327.673 138.043C327.769 137.659 327.481 137.467 327.097 137.467C325.849 137.467 324.601 137.467 323.449 137.467C323.065 137.467 322.777 137.371 322.585 137.083C322.393 136.795 322.393 136.507 322.489 136.027C323.449 132.476 324.313 128.828 325.273 125.18C325.369 124.796 325.561 124.412 325.849 124.124C326.233 123.932 326.617 123.74 327.001 123.74C328.153 123.74 329.497 123.74 330.745 123.74C330.937 123.74 331.033 123.644 331.129 123.548C331.321 123.452 331.417 123.356 331.417 123.164C332.569 118.748 333.721 114.332 334.969 109.916C335.065 109.532 335.161 109.148 335.545 108.86C335.929 108.572 336.217 108.476 336.601 108.476C341.785 108.476 347.064 108.476 352.344 108.476C352.728 108.476 353.016 108.572 353.208 108.86C353.4 109.148 353.4 109.532 353.304 109.916C352.056 114.332 351 118.748 349.848 123.164C349.752 123.548 349.944 123.74 350.232 123.74C352.248 123.74 354.168 123.74 356.184 123.74C356.568 123.74 356.952 123.932 357.144 124.124C357.336 124.412 357.336 124.796 357.24 125.18C356.184 128.828 355.416 132.476 354.456 136.027ZM359.064 186.234C356.376 186.234 354.36 185.37 352.92 183.738C351.48 182.01 351 179.898 351.384 177.21C351.864 173.85 353.304 170.97 355.896 168.762C358.392 166.554 361.272 165.402 364.44 165.402C367.128 165.402 369.144 166.266 370.584 167.802C371.928 169.434 372.408 171.546 372.12 174.234C371.64 177.594 370.104 180.474 367.608 182.778C365.112 185.082 362.136 186.234 359.064 186.234ZM404.95 118.268C402.263 118.268 400.247 117.404 398.903 115.772C397.559 114.044 396.983 111.932 397.367 109.34C397.847 105.884 399.287 103.101 401.879 100.797C404.278 98.5887 407.158 97.4367 410.326 97.4367C413.014 97.4367 415.03 98.2047 416.47 99.8366C417.814 101.469 418.294 103.58 417.91 106.172C417.526 109.628 415.99 112.508 413.59 114.812C410.998 117.116 408.214 118.268 404.95 118.268ZM379.607 185.466C379.223 185.466 378.839 185.37 378.647 185.082C378.455 184.794 378.551 184.506 378.647 184.026C381.239 174.234 383.639 164.442 386.135 154.651C388.727 144.859 391.319 134.971 393.815 125.18C393.911 124.796 394.103 124.412 394.487 124.124C394.775 123.932 395.159 123.74 395.543 123.74C401.015 123.74 406.486 123.74 412.054 123.74C412.438 123.74 412.726 123.932 412.918 124.124C413.11 124.412 413.11 124.796 413.014 125.18C410.422 134.971 407.926 144.859 405.43 154.651C402.839 164.442 400.439 174.234 397.847 184.026C397.751 184.506 397.463 184.794 397.079 185.082C396.791 185.37 396.503 185.466 396.119 185.466C390.551 185.466 385.079 185.466 379.607 185.466ZM452.373 122.78C457.077 122.78 460.341 124.22 462.261 126.908C464.18 129.692 464.948 133.627 464.276 138.715C464.084 140.251 463.7 141.979 463.22 143.803C461.397 150.523 459.573 157.243 457.845 163.962C456.213 170.586 454.485 177.402 452.661 184.026C452.565 184.506 452.373 184.794 451.989 185.082C451.701 185.37 451.413 185.466 450.933 185.466C445.461 185.466 439.989 185.466 434.421 185.466C434.133 185.466 433.749 185.37 433.557 185.082C433.365 184.794 433.365 184.506 433.461 184.026C435.189 177.594 436.821 171.066 438.453 164.634C440.085 158.107 441.813 151.579 443.445 145.147C443.637 144.763 443.733 144.187 443.829 143.611C444.117 141.019 443.349 139.771 441.237 139.771C439.989 139.771 438.837 140.251 437.877 141.211C436.917 142.171 436.245 143.515 435.765 145.243C434.037 151.675 432.31 158.203 430.678 164.634C429.046 171.066 427.414 177.594 425.686 184.026C425.59 184.506 425.398 184.794 425.11 185.082C424.726 185.37 424.342 185.466 423.958 185.466C418.39 185.466 412.918 185.466 407.446 185.466C407.158 185.466 406.87 185.37 406.582 185.082C406.39 184.794 406.39 184.506 406.486 184.026C408.982 174.234 411.574 164.442 414.07 154.651C416.566 144.859 419.254 134.971 421.75 125.18C421.846 124.796 422.038 124.412 422.422 124.124C422.71 123.932 422.998 123.74 423.382 123.74C428.854 123.74 434.421 123.74 439.989 123.74C440.277 123.74 440.661 123.836 440.853 124.124C441.045 124.412 441.045 124.796 440.853 125.18C440.565 125.948 440.469 126.812 440.277 127.58C440.277 127.772 440.277 127.772 440.373 127.772C440.661 127.772 441.045 127.58 441.621 127.1C444.693 124.22 448.341 122.78 452.373 122.78Z" fill="black"/>
</svg>
