<svg width="1204" height="260" viewBox="0 0 1204 260" fill="none" xmlns="http://www.w3.org/2000/svg">
<path d="M55.77 173.333C47.8834 173.333 40.7947 170.798 34.5042 165.728C28.2136 160.658 24.2234 154.18 22.5334 146.293L14.365 108.55L1.97166 109.395L0 86.8616C14.6466 85.5472 27.1808 84.6083 37.6026 84.045C48.0242 83.4816 57.3661 83.2 65.6284 83.2C77.8339 83.2 87.6922 83.7633 95.2034 84.89C102.714 86.0166 109.475 87.9883 115.484 90.805C118.112 92.1194 120.6 93.0583 122.948 93.6216C125.295 94.185 127.501 94.4666 129.566 94.4666C131.632 94.4666 133.65 94.185 135.622 93.6216C137.594 93.0583 139.895 92.2133 142.524 91.0866C148.72 88.27 155.855 86.2513 163.93 85.0308C172.005 83.8102 182.708 83.2 196.04 83.2C204.678 83.2 214.255 83.4816 224.77 84.045C235.285 84.6083 246.74 85.4533 259.134 86.58L257.162 108.832L245.05 107.987L236.6 146.575C234.91 154.462 230.966 160.893 224.77 165.869C218.574 170.845 211.532 173.333 203.646 173.333H178.576C170.69 173.333 163.742 170.939 157.734 166.151C151.725 161.362 147.781 155.213 145.904 147.702L138.298 117.563H121.116L113.512 147.702C111.446 155.4 107.409 161.597 101.4 166.292C95.3911 170.986 88.5373 173.333 80.8384 173.333H55.77ZM44.5034 141.787C45.0666 144.415 46.3811 146.575 48.4466 148.265C50.5123 149.955 52.8595 150.8 55.4884 150.8H80.5566C83.1855 150.8 85.5328 150.002 87.5984 148.406C89.6639 146.81 90.9784 144.791 91.5416 142.35L100.273 108.268C95.2034 107.329 89.4761 106.719 83.0916 106.438C76.7072 106.156 70.8861 106.015 65.6284 106.015C61.3095 106.015 56.6619 106.062 51.6858 106.156C46.7097 106.25 42.0622 106.484 37.7434 106.86L44.5034 141.787ZM167.592 142.35C168.156 144.791 169.469 146.81 171.536 148.406C173.601 150.002 175.948 150.8 178.576 150.8H203.646C206.274 150.8 208.621 149.955 210.686 148.265C212.752 146.575 214.066 144.415 214.63 141.787L221.954 106.578C218.198 106.39 213.879 106.25 208.996 106.156C204.115 106.062 199.795 106.015 196.04 106.015C190.406 106.015 184.163 106.156 177.31 106.438C170.455 106.719 164.305 107.329 158.86 108.268L167.592 142.35Z" fill="#615FFF"/>
<path d="M359.361 67.9H375.201C375.321 67.9 375.381 67.9 375.381 67.9C375.381 67.9 375.381 67.96 375.381 68.08V83.92C375.381 84.04 375.381 84.1 375.381 84.1C375.381 84.1 375.321 84.1 375.201 84.1H359.361C359.241 84.1 359.181 84.1 359.181 84.1C359.181 84.1 359.181 84.04 359.181 83.92V68.08C359.181 67.96 359.181 67.9 359.181 67.9C359.181 67.9 359.241 67.9 359.361 67.9ZM359.361 85.9H375.201C375.321 85.9 375.381 85.9 375.381 85.9C375.381 85.9 375.381 85.96 375.381 86.08V101.92C375.381 102.04 375.381 102.1 375.381 102.1C375.381 102.1 375.321 102.1 375.201 102.1H359.361C359.241 102.1 359.181 102.1 359.181 102.1C359.181 102.1 359.181 102.04 359.181 101.92V86.08C359.181 85.96 359.181 85.9 359.181 85.9C359.181 85.9 359.241 85.9 359.361 85.9ZM341.361 103.9H357.201C357.321 103.9 357.381 103.9 357.381 103.9C357.381 103.9 357.381 103.96 357.381 104.08V119.92C357.381 120.04 357.381 120.1 357.381 120.1C357.381 120.1 357.321 120.1 357.201 120.1H341.361C341.241 120.1 341.181 120.1 341.181 120.1C341.181 120.1 341.181 120.04 341.181 119.92V104.08C341.181 103.96 341.181 103.9 341.181 103.9C341.181 103.9 341.241 103.9 341.361 103.9ZM359.361 103.9H375.201C375.321 103.9 375.381 103.9 375.381 103.9C375.381 103.9 375.381 103.96 375.381 104.08V119.92C375.381 120.04 375.381 120.1 375.381 120.1C375.381 120.1 375.321 120.1 375.201 120.1H359.361C359.241 120.1 359.181 120.1 359.181 120.1C359.181 120.1 359.181 120.04 359.181 119.92V104.08C359.181 103.96 359.181 103.9 359.181 103.9C359.181 103.9 359.241 103.9 359.361 103.9ZM377.361 103.9H393.201C393.321 103.9 393.381 103.9 393.381 103.9C393.381 103.9 393.381 103.96 393.381 104.08V119.92C393.381 120.04 393.381 120.1 393.381 120.1C393.381 120.1 393.321 120.1 393.201 120.1H377.361C377.241 120.1 377.181 120.1 377.181 120.1C377.181 120.1 377.181 120.04 377.181 119.92V104.08C377.181 103.96 377.181 103.9 377.181 103.9C377.181 103.9 377.241 103.9 377.361 103.9ZM395.361 103.9H411.201C411.321 103.9 411.381 103.9 411.381 103.9C411.381 103.9 411.381 103.96 411.381 104.08V119.92C411.381 120.04 411.381 120.1 411.381 120.1C411.381 120.1 411.321 120.1 411.201 120.1H395.361C395.241 120.1 395.181 120.1 395.181 120.1C395.181 120.1 395.181 120.04 395.181 119.92V104.08C395.181 103.96 395.181 103.9 395.181 103.9C395.181 103.9 395.241 103.9 395.361 103.9ZM359.361 121.9H375.201C375.321 121.9 375.381 121.9 375.381 121.9C375.381 121.9 375.381 121.96 375.381 122.08V137.92C375.381 138.04 375.381 138.1 375.381 138.1C375.381 138.1 375.321 138.1 375.201 138.1H359.361C359.241 138.1 359.181 138.1 359.181 138.1C359.181 138.1 359.181 138.04 359.181 137.92V122.08C359.181 121.96 359.181 121.9 359.181 121.9C359.181 121.9 359.241 121.9 359.361 121.9ZM359.361 139.9H375.201C375.321 139.9 375.381 139.9 375.381 139.9C375.381 139.9 375.381 139.96 375.381 140.08V155.92C375.381 156.04 375.381 156.1 375.381 156.1C375.381 156.1 375.321 156.1 375.201 156.1H359.361C359.241 156.1 359.181 156.1 359.181 156.1C359.181 156.1 359.181 156.04 359.181 155.92V140.08C359.181 139.96 359.181 139.9 359.181 139.9C359.181 139.9 359.241 139.9 359.361 139.9ZM359.361 157.9H375.201C375.321 157.9 375.381 157.9 375.381 157.9C375.381 157.9 375.381 157.96 375.381 158.08V173.92C375.381 174.04 375.381 174.1 375.381 174.1C375.381 174.1 375.321 174.1 375.201 174.1H359.361C359.241 174.1 359.181 174.1 359.181 174.1C359.181 174.1 359.181 174.04 359.181 173.92V158.08C359.181 157.96 359.181 157.9 359.181 157.9C359.181 157.9 359.241 157.9 359.361 157.9ZM413.361 157.9H429.201C429.321 157.9 429.381 157.9 429.381 157.9C429.381 157.9 429.381 157.96 429.381 158.08V173.92C429.381 174.04 429.381 174.1 429.381 174.1C429.381 174.1 429.321 174.1 429.201 174.1H413.361C413.241 174.1 413.181 174.1 413.181 174.1C413.181 174.1 413.181 174.04 413.181 173.92V158.08C413.181 157.96 413.181 157.9 413.181 157.9C413.181 157.9 413.241 157.9 413.361 157.9ZM377.361 175.9H393.201C393.321 175.9 393.381 175.9 393.381 175.9C393.381 175.9 393.381 175.96 393.381 176.08V191.92C393.381 192.04 393.381 192.1 393.381 192.1C393.381 192.1 393.321 192.1 393.201 192.1H377.361C377.241 192.1 377.181 192.1 377.181 192.1C377.181 192.1 377.181 192.04 377.181 191.92V176.08C377.181 175.96 377.181 175.9 377.181 175.9C377.181 175.9 377.241 175.9 377.361 175.9ZM395.361 175.9H411.201C411.321 175.9 411.381 175.9 411.381 175.9C411.381 175.9 411.381 175.96 411.381 176.08V191.92C411.381 192.04 411.381 192.1 411.381 192.1C411.381 192.1 411.321 192.1 411.201 192.1H395.361C395.241 192.1 395.181 192.1 395.181 192.1C395.181 192.1 395.181 192.04 395.181 191.92V176.08C395.181 175.96 395.181 175.9 395.181 175.9C395.181 175.9 395.241 175.9 395.361 175.9ZM449.291 67.9H465.131C465.251 67.9 465.311 67.9 465.311 67.9C465.311 67.9 465.311 67.96 465.311 68.08V83.92C465.311 84.04 465.311 84.1 465.311 84.1C465.311 84.1 465.251 84.1 465.131 84.1H449.291C449.171 84.1 449.111 84.1 449.111 84.1C449.111 84.1 449.111 84.04 449.111 83.92V68.08C449.111 67.96 449.111 67.9 449.111 67.9C449.111 67.9 449.171 67.9 449.291 67.9ZM449.291 85.9H465.131C465.251 85.9 465.311 85.9 465.311 85.9C465.311 85.9 465.311 85.96 465.311 86.08V101.92C465.311 102.04 465.311 102.1 465.311 102.1C465.311 102.1 465.251 102.1 465.131 102.1H449.291C449.171 102.1 449.111 102.1 449.111 102.1C449.111 102.1 449.111 102.04 449.111 101.92V86.08C449.111 85.96 449.111 85.9 449.111 85.9C449.111 85.9 449.171 85.9 449.291 85.9ZM449.291 103.9H465.131C465.251 103.9 465.311 103.9 465.311 103.9C465.311 103.9 465.311 103.96 465.311 104.08V119.92C465.311 120.04 465.311 120.1 465.311 120.1C465.311 120.1 465.251 120.1 465.131 120.1H449.291C449.171 120.1 449.111 120.1 449.111 120.1C449.111 120.1 449.111 120.04 449.111 119.92V104.08C449.111 103.96 449.111 103.9 449.111 103.9C449.111 103.9 449.171 103.9 449.291 103.9ZM485.291 103.9H501.131C501.251 103.9 501.311 103.9 501.311 103.9C501.311 103.9 501.311 103.96 501.311 104.08V119.92C501.311 120.04 501.311 120.1 501.311 120.1C501.311 120.1 501.251 120.1 501.131 120.1H485.291C485.171 120.1 485.111 120.1 485.111 120.1C485.111 120.1 485.111 120.04 485.111 119.92V104.08C485.111 103.96 485.111 103.9 485.111 103.9C485.111 103.9 485.171 103.9 485.291 103.9ZM503.291 103.9H519.131C519.251 103.9 519.311 103.9 519.311 103.9C519.311 103.9 519.311 103.96 519.311 104.08V119.92C519.311 120.04 519.311 120.1 519.311 120.1C519.311 120.1 519.251 120.1 519.131 120.1H503.291C503.171 120.1 503.111 120.1 503.111 120.1C503.111 120.1 503.111 120.04 503.111 119.92V104.08C503.111 103.96 503.111 103.9 503.111 103.9C503.111 103.9 503.171 103.9 503.291 103.9ZM449.291 121.9H465.131C465.251 121.9 465.311 121.9 465.311 121.9C465.311 121.9 465.311 121.96 465.311 122.08V137.92C465.311 138.04 465.311 138.1 465.311 138.1C465.311 138.1 465.251 138.1 465.131 138.1H449.291C449.171 138.1 449.111 138.1 449.111 138.1C449.111 138.1 449.111 138.04 449.111 137.92V122.08C449.111 121.96 449.111 121.9 449.111 121.9C449.111 121.9 449.171 121.9 449.291 121.9ZM467.291 121.9H483.131C483.251 121.9 483.311 121.9 483.311 121.9C483.311 121.9 483.311 121.96 483.311 122.08V137.92C483.311 138.04 483.311 138.1 483.311 138.1C483.311 138.1 483.251 138.1 483.131 138.1H467.291C467.171 138.1 467.111 138.1 467.111 138.1C467.111 138.1 467.111 138.04 467.111 137.92V122.08C467.111 121.96 467.111 121.9 467.111 121.9C467.111 121.9 467.171 121.9 467.291 121.9ZM521.291 121.9H537.131C537.251 121.9 537.311 121.9 537.311 121.9C537.311 121.9 537.311 121.96 537.311 122.08V137.92C537.311 138.04 537.311 138.1 537.311 138.1C537.311 138.1 537.251 138.1 537.131 138.1H521.291C521.171 138.1 521.111 138.1 521.111 138.1C521.111 138.1 521.111 138.04 521.111 137.92V122.08C521.111 121.96 521.111 121.9 521.111 121.9C521.111 121.9 521.171 121.9 521.291 121.9ZM449.291 139.9H465.131C465.251 139.9 465.311 139.9 465.311 139.9C465.311 139.9 465.311 139.96 465.311 140.08V155.92C465.311 156.04 465.311 156.1 465.311 156.1C465.311 156.1 465.251 156.1 465.131 156.1H449.291C449.171 156.1 449.111 156.1 449.111 156.1C449.111 156.1 449.111 156.04 449.111 155.92V140.08C449.111 139.96 449.111 139.9 449.111 139.9C449.111 139.9 449.171 139.9 449.291 139.9ZM521.291 139.9H537.131C537.251 139.9 537.311 139.9 537.311 139.9C537.311 139.9 537.311 139.96 537.311 140.08V155.92C537.311 156.04 537.311 156.1 537.311 156.1C537.311 156.1 537.251 156.1 537.131 156.1H521.291C521.171 156.1 521.111 156.1 521.111 156.1C521.111 156.1 521.111 156.04 521.111 155.92V140.08C521.111 139.96 521.111 139.9 521.111 139.9C521.111 139.9 521.171 139.9 521.291 139.9ZM449.291 157.9H465.131C465.251 157.9 465.311 157.9 465.311 157.9C465.311 157.9 465.311 157.96 465.311 158.08V173.92C465.311 174.04 465.311 174.1 465.311 174.1C465.311 174.1 465.251 174.1 465.131 174.1H449.291C449.171 174.1 449.111 174.1 449.111 174.1C449.111 174.1 449.111 174.04 449.111 173.92V158.08C449.111 157.96 449.111 157.9 449.111 157.9C449.111 157.9 449.171 157.9 449.291 157.9ZM521.291 157.9H537.131C537.251 157.9 537.311 157.9 537.311 157.9C537.311 157.9 537.311 157.96 537.311 158.08V173.92C537.311 174.04 537.311 174.1 537.311 174.1C537.311 174.1 537.251 174.1 537.131 174.1H521.291C521.171 174.1 521.111 174.1 521.111 174.1C521.111 174.1 521.111 174.04 521.111 173.92V158.08C521.111 157.96 521.111 157.9 521.111 157.9C521.111 157.9 521.171 157.9 521.291 157.9ZM449.291 175.9H465.131C465.251 175.9 465.311 175.9 465.311 175.9C465.311 175.9 465.311 175.96 465.311 176.08V191.92C465.311 192.04 465.311 192.1 465.311 192.1C465.311 192.1 465.251 192.1 465.131 192.1H449.291C449.171 192.1 449.111 192.1 449.111 192.1C449.111 192.1 449.111 192.04 449.111 191.92V176.08C449.111 175.96 449.111 175.9 449.111 175.9C449.111 175.9 449.171 175.9 449.291 175.9ZM521.291 175.9H537.131C537.251 175.9 537.311 175.9 537.311 175.9C537.311 175.9 537.311 175.96 537.311 176.08V191.92C537.311 192.04 537.311 192.1 537.311 192.1C537.311 192.1 537.251 192.1 537.131 192.1H521.291C521.171 192.1 521.111 192.1 521.111 192.1C521.111 192.1 521.111 192.04 521.111 191.92V176.08C521.111 175.96 521.111 175.9 521.111 175.9C521.111 175.9 521.171 175.9 521.291 175.9ZM575.221 103.9H591.061C591.181 103.9 591.241 103.9 591.241 103.9C591.241 103.9 591.241 103.96 591.241 104.08V119.92C591.241 120.04 591.241 120.1 591.241 120.1C591.241 120.1 591.181 120.1 591.061 120.1H575.221C575.101 120.1 575.041 120.1 575.041 120.1C575.041 120.1 575.041 120.04 575.041 119.92V104.08C575.041 103.96 575.041 103.9 575.041 103.9C575.041 103.9 575.101 103.9 575.221 103.9ZM593.221 103.9H609.061C609.181 103.9 609.241 103.9 609.241 103.9C609.241 103.9 609.241 103.96 609.241 104.08V119.92C609.241 120.04 609.241 120.1 609.241 120.1C609.241 120.1 609.181 120.1 609.061 120.1H593.221C593.101 120.1 593.041 120.1 593.041 120.1C593.041 120.1 593.041 120.04 593.041 119.92V104.08C593.041 103.96 593.041 103.9 593.041 103.9C593.041 103.9 593.101 103.9 593.221 103.9ZM611.221 103.9H627.061C627.181 103.9 627.241 103.9 627.241 103.9C627.241 103.9 627.241 103.96 627.241 104.08V119.92C627.241 120.04 627.241 120.1 627.241 120.1C627.241 120.1 627.181 120.1 627.061 120.1H611.221C611.101 120.1 611.041 120.1 611.041 120.1C611.041 120.1 611.041 120.04 611.041 119.92V104.08C611.041 103.96 611.041 103.9 611.041 103.9C611.041 103.9 611.101 103.9 611.221 103.9ZM557.221 121.9H573.061C573.181 121.9 573.241 121.9 573.241 121.9C573.241 121.9 573.241 121.96 573.241 122.08V137.92C573.241 138.04 573.241 138.1 573.241 138.1C573.241 138.1 573.181 138.1 573.061 138.1H557.221C557.101 138.1 557.041 138.1 557.041 138.1C557.041 138.1 557.041 138.04 557.041 137.92V122.08C557.041 121.96 557.041 121.9 557.041 121.9C557.041 121.9 557.101 121.9 557.221 121.9ZM629.221 121.9H645.061C645.181 121.9 645.241 121.9 645.241 121.9C645.241 121.9 645.241 121.96 645.241 122.08V137.92C645.241 138.04 645.241 138.1 645.241 138.1C645.241 138.1 645.181 138.1 645.061 138.1H629.221C629.101 138.1 629.041 138.1 629.041 138.1C629.041 138.1 629.041 138.04 629.041 137.92V122.08C629.041 121.96 629.041 121.9 629.041 121.9C629.041 121.9 629.101 121.9 629.221 121.9ZM557.221 139.9H573.061C573.181 139.9 573.241 139.9 573.241 139.9C573.241 139.9 573.241 139.96 573.241 140.08V155.92C573.241 156.04 573.241 156.1 573.241 156.1C573.241 156.1 573.181 156.1 573.061 156.1H557.221C557.101 156.1 557.041 156.1 557.041 156.1C557.041 156.1 557.041 156.04 557.041 155.92V140.08C557.041 139.96 557.041 139.9 557.041 139.9C557.041 139.9 557.101 139.9 557.221 139.9ZM575.221 139.9H591.061C591.181 139.9 591.241 139.9 591.241 139.9C591.241 139.9 591.241 139.96 591.241 140.08V155.92C591.241 156.04 591.241 156.1 591.241 156.1C591.241 156.1 591.181 156.1 591.061 156.1H575.221C575.101 156.1 575.041 156.1 575.041 156.1C575.041 156.1 575.041 156.04 575.041 155.92V140.08C575.041 139.96 575.041 139.9 575.041 139.9C575.041 139.9 575.101 139.9 575.221 139.9ZM593.221 139.9H609.061C609.181 139.9 609.241 139.9 609.241 139.9C609.241 139.9 609.241 139.96 609.241 140.08V155.92C609.241 156.04 609.241 156.1 609.241 156.1C609.241 156.1 609.181 156.1 609.061 156.1H593.221C593.101 156.1 593.041 156.1 593.041 156.1C593.041 156.1 593.041 156.04 593.041 155.92V140.08C593.041 139.96 593.041 139.9 593.041 139.9C593.041 139.9 593.101 139.9 593.221 139.9ZM611.221 139.9H627.061C627.181 139.9 627.241 139.9 627.241 139.9C627.241 139.9 627.241 139.96 627.241 140.08V155.92C627.241 156.04 627.241 156.1 627.241 156.1C627.241 156.1 627.181 156.1 627.061 156.1H611.221C611.101 156.1 611.041 156.1 611.041 156.1C611.041 156.1 611.041 156.04 611.041 155.92V140.08C611.041 139.96 611.041 139.9 611.041 139.9C611.041 139.9 611.101 139.9 611.221 139.9ZM629.221 139.9H645.061C645.181 139.9 645.241 139.9 645.241 139.9C645.241 139.9 645.241 139.96 645.241 140.08V155.92C645.241 156.04 645.241 156.1 645.241 156.1C645.241 156.1 645.181 156.1 645.061 156.1H629.221C629.101 156.1 629.041 156.1 629.041 156.1C629.041 156.1 629.041 156.04 629.041 155.92V140.08C629.041 139.96 629.041 139.9 629.041 139.9C629.041 139.9 629.101 139.9 629.221 139.9ZM557.221 157.9H573.061C573.181 157.9 573.241 157.9 573.241 157.9C573.241 157.9 573.241 157.96 573.241 158.08V173.92C573.241 174.04 573.241 174.1 573.241 174.1C573.241 174.1 573.181 174.1 573.061 174.1H557.221C557.101 174.1 557.041 174.1 557.041 174.1C557.041 174.1 557.041 174.04 557.041 173.92V158.08C557.041 157.96 557.041 157.9 557.041 157.9C557.041 157.9 557.101 157.9 557.221 157.9ZM575.221 175.9H591.061C591.181 175.9 591.241 175.9 591.241 175.9C591.241 175.9 591.241 175.96 591.241 176.08V191.92C591.241 192.04 591.241 192.1 591.241 192.1C591.241 192.1 591.181 192.1 591.061 192.1H575.221C575.101 192.1 575.041 192.1 575.041 192.1C575.041 192.1 575.041 192.04 575.041 191.92V176.08C575.041 175.96 575.041 175.9 575.041 175.9C575.041 175.9 575.101 175.9 575.221 175.9ZM593.221 175.9H609.061C609.181 175.9 609.241 175.9 609.241 175.9C609.241 175.9 609.241 175.96 609.241 176.08V191.92C609.241 192.04 609.241 192.1 609.241 192.1C609.241 192.1 609.181 192.1 609.061 192.1H593.221C593.101 192.1 593.041 192.1 593.041 192.1C593.041 192.1 593.041 192.04 593.041 191.92V176.08C593.041 175.96 593.041 175.9 593.041 175.9C593.041 175.9 593.101 175.9 593.221 175.9ZM611.221 175.9H627.061C627.181 175.9 627.241 175.9 627.241 175.9C627.241 175.9 627.241 175.96 627.241 176.08V191.92C627.241 192.04 627.241 192.1 627.241 192.1C627.241 192.1 627.181 192.1 627.061 192.1H611.221C611.101 192.1 611.041 192.1 611.041 192.1C611.041 192.1 611.041 192.04 611.041 191.92V176.08C611.041 175.96 611.041 175.9 611.041 175.9C611.041 175.9 611.101 175.9 611.221 175.9ZM683.15 67.9H698.99C699.11 67.9 699.17 67.9 699.17 67.9C699.17 67.9 699.17 67.96 699.17 68.08V83.92C699.17 84.04 699.17 84.1 699.17 84.1C699.17 84.1 699.11 84.1 698.99 84.1H683.15C683.03 84.1 682.97 84.1 682.97 84.1C682.97 84.1 682.97 84.04 682.97 83.92V68.08C682.97 67.96 682.97 67.9 682.97 67.9C682.97 67.9 683.03 67.9 683.15 67.9ZM701.15 67.9H716.99C717.11 67.9 717.17 67.9 717.17 67.9C717.17 67.9 717.17 67.96 717.17 68.08V83.92C717.17 84.04 717.17 84.1 717.17 84.1C717.17 84.1 717.11 84.1 716.99 84.1H701.15C701.03 84.1 700.97 84.1 700.97 84.1C700.97 84.1 700.97 84.04 700.97 83.92V68.08C700.97 67.96 700.97 67.9 700.97 67.9C700.97 67.9 701.03 67.9 701.15 67.9ZM719.15 67.9H734.99C735.11 67.9 735.17 67.9 735.17 67.9C735.17 67.9 735.17 67.96 735.17 68.08V83.92C735.17 84.04 735.17 84.1 735.17 84.1C735.17 84.1 735.11 84.1 734.99 84.1H719.15C719.03 84.1 718.97 84.1 718.97 84.1C718.97 84.1 718.97 84.04 718.97 83.92V68.08C718.97 67.96 718.97 67.9 718.97 67.9C718.97 67.9 719.03 67.9 719.15 67.9ZM665.15 85.9H680.99C681.11 85.9 681.17 85.9 681.17 85.9C681.17 85.9 681.17 85.96 681.17 86.08V101.92C681.17 102.04 681.17 102.1 681.17 102.1C681.17 102.1 681.11 102.1 680.99 102.1H665.15C665.03 102.1 664.97 102.1 664.97 102.1C664.97 102.1 664.97 102.04 664.97 101.92V86.08C664.97 85.96 664.97 85.9 664.97 85.9C664.97 85.9 665.03 85.9 665.15 85.9ZM737.15 85.9H752.99C753.11 85.9 753.17 85.9 753.17 85.9C753.17 85.9 753.17 85.96 753.17 86.08V101.92C753.17 102.04 753.17 102.1 753.17 102.1C753.17 102.1 753.11 102.1 752.99 102.1H737.15C737.03 102.1 736.97 102.1 736.97 102.1C736.97 102.1 736.97 102.04 736.97 101.92V86.08C736.97 85.96 736.97 85.9 736.97 85.9C736.97 85.9 737.03 85.9 737.15 85.9ZM665.15 103.9H680.99C681.11 103.9 681.17 103.9 681.17 103.9C681.17 103.9 681.17 103.96 681.17 104.08V119.92C681.17 120.04 681.17 120.1 681.17 120.1C681.17 120.1 681.11 120.1 680.99 120.1H665.15C665.03 120.1 664.97 120.1 664.97 120.1C664.97 120.1 664.97 120.04 664.97 119.92V104.08C664.97 103.96 664.97 103.9 664.97 103.9C664.97 103.9 665.03 103.9 665.15 103.9ZM683.15 121.9H698.99C699.11 121.9 699.17 121.9 699.17 121.9C699.17 121.9 699.17 121.96 699.17 122.08V137.92C699.17 138.04 699.17 138.1 699.17 138.1C699.17 138.1 699.11 138.1 698.99 138.1H683.15C683.03 138.1 682.97 138.1 682.97 138.1C682.97 138.1 682.97 138.04 682.97 137.92V122.08C682.97 121.96 682.97 121.9 682.97 121.9C682.97 121.9 683.03 121.9 683.15 121.9ZM701.15 121.9H716.99C717.11 121.9 717.17 121.9 717.17 121.9C717.17 121.9 717.17 121.96 717.17 122.08V137.92C717.17 138.04 717.17 138.1 717.17 138.1C717.17 138.1 717.11 138.1 716.99 138.1H701.15C701.03 138.1 700.97 138.1 700.97 138.1C700.97 138.1 700.97 138.04 700.97 137.92V122.08C700.97 121.96 700.97 121.9 700.97 121.9C700.97 121.9 701.03 121.9 701.15 121.9ZM719.15 121.9H734.99C735.11 121.9 735.17 121.9 735.17 121.9C735.17 121.9 735.17 121.96 735.17 122.08V137.92C735.17 138.04 735.17 138.1 735.17 138.1C735.17 138.1 735.11 138.1 734.99 138.1H719.15C719.03 138.1 718.97 138.1 718.97 138.1C718.97 138.1 718.97 138.04 718.97 137.92V122.08C718.97 121.96 718.97 121.9 718.97 121.9C718.97 121.9 719.03 121.9 719.15 121.9ZM737.15 139.9H752.99C753.11 139.9 753.17 139.9 753.17 139.9C753.17 139.9 753.17 139.96 753.17 140.08V155.92C753.17 156.04 753.17 156.1 753.17 156.1C753.17 156.1 753.11 156.1 752.99 156.1H737.15C737.03 156.1 736.97 156.1 736.97 156.1C736.97 156.1 736.97 156.04 736.97 155.92V140.08C736.97 139.96 736.97 139.9 736.97 139.9C736.97 139.9 737.03 139.9 737.15 139.9ZM665.15 157.9H680.99C681.11 157.9 681.17 157.9 681.17 157.9C681.17 157.9 681.17 157.96 681.17 158.08V173.92C681.17 174.04 681.17 174.1 681.17 174.1C681.17 174.1 681.11 174.1 680.99 174.1H665.15C665.03 174.1 664.97 174.1 664.97 174.1C664.97 174.1 664.97 174.04 664.97 173.92V158.08C664.97 157.96 664.97 157.9 664.97 157.9C664.97 157.9 665.03 157.9 665.15 157.9ZM737.15 157.9H752.99C753.11 157.9 753.17 157.9 753.17 157.9C753.17 157.9 753.17 157.96 753.17 158.08V173.92C753.17 174.04 753.17 174.1 753.17 174.1C753.17 174.1 753.11 174.1 752.99 174.1H737.15C737.03 174.1 736.97 174.1 736.97 174.1C736.97 174.1 736.97 174.04 736.97 173.92V158.08C736.97 157.96 736.97 157.9 736.97 157.9C736.97 157.9 737.03 157.9 737.15 157.9ZM683.15 175.9H698.99C699.11 175.9 699.17 175.9 699.17 175.9C699.17 175.9 699.17 175.96 699.17 176.08V191.92C699.17 192.04 699.17 192.1 699.17 192.1C699.17 192.1 699.11 192.1 698.99 192.1H683.15C683.03 192.1 682.97 192.1 682.97 192.1C682.97 192.1 682.97 192.04 682.97 191.92V176.08C682.97 175.96 682.97 175.9 682.97 175.9C682.97 175.9 683.03 175.9 683.15 175.9ZM701.15 175.9H716.99C717.11 175.9 717.17 175.9 717.17 175.9C717.17 175.9 717.17 175.96 717.17 176.08V191.92C717.17 192.04 717.17 192.1 717.17 192.1C717.17 192.1 717.11 192.1 716.99 192.1H701.15C701.03 192.1 700.97 192.1 700.97 192.1C700.97 192.1 700.97 192.04 700.97 191.92V176.08C700.97 175.96 700.97 175.9 700.97 175.9C700.97 175.9 701.03 175.9 701.15 175.9ZM719.15 175.9H734.99C735.11 175.9 735.17 175.9 735.17 175.9C735.17 175.9 735.17 175.96 735.17 176.08V191.92C735.17 192.04 735.17 192.1 735.17 192.1C735.17 192.1 735.11 192.1 734.99 192.1H719.15C719.03 192.1 718.97 192.1 718.97 192.1C718.97 192.1 718.97 192.04 718.97 191.92V176.08C718.97 175.96 718.97 175.9 718.97 175.9C718.97 175.9 719.03 175.9 719.15 175.9ZM791.08 67.9H806.92C807.04 67.9 807.1 67.9 807.1 67.9C807.1 67.9 807.1 67.96 807.1 68.08V83.92C807.1 84.04 807.1 84.1 807.1 84.1C807.1 84.1 807.04 84.1 806.92 84.1H791.08C790.96 84.1 790.9 84.1 790.9 84.1C790.9 84.1 790.9 84.04 790.9 83.92V68.08C790.9 67.96 790.9 67.9 790.9 67.9C790.9 67.9 790.96 67.9 791.08 67.9ZM791.08 85.9H806.92C807.04 85.9 807.1 85.9 807.1 85.9C807.1 85.9 807.1 85.96 807.1 86.08V101.92C807.1 102.04 807.1 102.1 807.1 102.1C807.1 102.1 807.04 102.1 806.92 102.1H791.08C790.96 102.1 790.9 102.1 790.9 102.1C790.9 102.1 790.9 102.04 790.9 101.92V86.08C790.9 85.96 790.9 85.9 790.9 85.9C790.9 85.9 790.96 85.9 791.08 85.9ZM773.08 103.9H788.92C789.04 103.9 789.1 103.9 789.1 103.9C789.1 103.9 789.1 103.96 789.1 104.08V119.92C789.1 120.04 789.1 120.1 789.1 120.1C789.1 120.1 789.04 120.1 788.92 120.1H773.08C772.96 120.1 772.9 120.1 772.9 120.1C772.9 120.1 772.9 120.04 772.9 119.92V104.08C772.9 103.96 772.9 103.9 772.9 103.9C772.9 103.9 772.96 103.9 773.08 103.9ZM791.08 103.9H806.92C807.04 103.9 807.1 103.9 807.1 103.9C807.1 103.9 807.1 103.96 807.1 104.08V119.92C807.1 120.04 807.1 120.1 807.1 120.1C807.1 120.1 807.04 120.1 806.92 120.1H791.08C790.96 120.1 790.9 120.1 790.9 120.1C790.9 120.1 790.9 120.04 790.9 119.92V104.08C790.9 103.96 790.9 103.9 790.9 103.9C790.9 103.9 790.96 103.9 791.08 103.9ZM809.08 103.9H824.92C825.04 103.9 825.1 103.9 825.1 103.9C825.1 103.9 825.1 103.96 825.1 104.08V119.92C825.1 120.04 825.1 120.1 825.1 120.1C825.1 120.1 825.04 120.1 824.92 120.1H809.08C808.96 120.1 808.9 120.1 808.9 120.1C808.9 120.1 808.9 120.04 808.9 119.92V104.08C808.9 103.96 808.9 103.9 808.9 103.9C808.9 103.9 808.96 103.9 809.08 103.9ZM827.08 103.9H842.92C843.04 103.9 843.1 103.9 843.1 103.9C843.1 103.9 843.1 103.96 843.1 104.08V119.92C843.1 120.04 843.1 120.1 843.1 120.1C843.1 120.1 843.04 120.1 842.92 120.1H827.08C826.96 120.1 826.9 120.1 826.9 120.1C826.9 120.1 826.9 120.04 826.9 119.92V104.08C826.9 103.96 826.9 103.9 826.9 103.9C826.9 103.9 826.96 103.9 827.08 103.9ZM791.08 121.9H806.92C807.04 121.9 807.1 121.9 807.1 121.9C807.1 121.9 807.1 121.96 807.1 122.08V137.92C807.1 138.04 807.1 138.1 807.1 138.1C807.1 138.1 807.04 138.1 806.92 138.1H791.08C790.96 138.1 790.9 138.1 790.9 138.1C790.9 138.1 790.9 138.04 790.9 137.92V122.08C790.9 121.96 790.9 121.9 790.9 121.9C790.9 121.9 790.96 121.9 791.08 121.9ZM791.08 139.9H806.92C807.04 139.9 807.1 139.9 807.1 139.9C807.1 139.9 807.1 139.96 807.1 140.08V155.92C807.1 156.04 807.1 156.1 807.1 156.1C807.1 156.1 807.04 156.1 806.92 156.1H791.08C790.96 156.1 790.9 156.1 790.9 156.1C790.9 156.1 790.9 156.04 790.9 155.92V140.08C790.9 139.96 790.9 139.9 790.9 139.9C790.9 139.9 790.96 139.9 791.08 139.9ZM791.08 157.9H806.92C807.04 157.9 807.1 157.9 807.1 157.9C807.1 157.9 807.1 157.96 807.1 158.08V173.92C807.1 174.04 807.1 174.1 807.1 174.1C807.1 174.1 807.04 174.1 806.92 174.1H791.08C790.96 174.1 790.9 174.1 790.9 174.1C790.9 174.1 790.9 174.04 790.9 173.92V158.08C790.9 157.96 790.9 157.9 790.9 157.9C790.9 157.9 790.96 157.9 791.08 157.9ZM845.08 157.9H860.92C861.04 157.9 861.1 157.9 861.1 157.9C861.1 157.9 861.1 157.96 861.1 158.08V173.92C861.1 174.04 861.1 174.1 861.1 174.1C861.1 174.1 861.04 174.1 860.92 174.1H845.08C844.96 174.1 844.9 174.1 844.9 174.1C844.9 174.1 844.9 174.04 844.9 173.92V158.08C844.9 157.96 844.9 157.9 844.9 157.9C844.9 157.9 844.96 157.9 845.08 157.9ZM809.08 175.9H824.92C825.04 175.9 825.1 175.9 825.1 175.9C825.1 175.9 825.1 175.96 825.1 176.08V191.92C825.1 192.04 825.1 192.1 825.1 192.1C825.1 192.1 825.04 192.1 824.92 192.1H809.08C808.96 192.1 808.9 192.1 808.9 192.1C808.9 192.1 808.9 192.04 808.9 191.92V176.08C808.9 175.96 808.9 175.9 808.9 175.9C808.9 175.9 808.96 175.9 809.08 175.9ZM827.08 175.9H842.92C843.04 175.9 843.1 175.9 843.1 175.9C843.1 175.9 843.1 175.96 843.1 176.08V191.92C843.1 192.04 843.1 192.1 843.1 192.1C843.1 192.1 843.04 192.1 842.92 192.1H827.08C826.96 192.1 826.9 192.1 826.9 192.1C826.9 192.1 826.9 192.04 826.9 191.92V176.08C826.9 175.96 826.9 175.9 826.9 175.9C826.9 175.9 826.96 175.9 827.08 175.9ZM899.01 103.9H914.85C914.97 103.9 915.03 103.9 915.03 103.9C915.03 103.9 915.03 103.96 915.03 104.08V119.92C915.03 120.04 915.03 120.1 915.03 120.1C915.03 120.1 914.97 120.1 914.85 120.1H899.01C898.89 120.1 898.83 120.1 898.83 120.1C898.83 120.1 898.83 120.04 898.83 119.92V104.08C898.83 103.96 898.83 103.9 898.83 103.9C898.83 103.9 898.89 103.9 899.01 103.9ZM917.01 103.9H932.85C932.97 103.9 933.03 103.9 933.03 103.9C933.03 103.9 933.03 103.96 933.03 104.08V119.92C933.03 120.04 933.03 120.1 933.03 120.1C933.03 120.1 932.97 120.1 932.85 120.1H917.01C916.89 120.1 916.83 120.1 916.83 120.1C916.83 120.1 916.83 120.04 916.83 119.92V104.08C916.83 103.96 916.83 103.9 916.83 103.9C916.83 103.9 916.89 103.9 917.01 103.9ZM935.01 103.9H950.85C950.97 103.9 951.03 103.9 951.03 103.9C951.03 103.9 951.03 103.96 951.03 104.08V119.92C951.03 120.04 951.03 120.1 951.03 120.1C951.03 120.1 950.97 120.1 950.85 120.1H935.01C934.89 120.1 934.83 120.1 934.83 120.1C934.83 120.1 934.83 120.04 934.83 119.92V104.08C934.83 103.96 934.83 103.9 934.83 103.9C934.83 103.9 934.89 103.9 935.01 103.9ZM953.01 121.9H968.85C968.97 121.9 969.03 121.9 969.03 121.9C969.03 121.9 969.03 121.96 969.03 122.08V137.92C969.03 138.04 969.03 138.1 969.03 138.1C969.03 138.1 968.97 138.1 968.85 138.1H953.01C952.89 138.1 952.83 138.1 952.83 138.1C952.83 138.1 952.83 138.04 952.83 137.92V122.08C952.83 121.96 952.83 121.9 952.83 121.9C952.83 121.9 952.89 121.9 953.01 121.9ZM899.01 139.9H914.85C914.97 139.9 915.03 139.9 915.03 139.9C915.03 139.9 915.03 139.96 915.03 140.08V155.92C915.03 156.04 915.03 156.1 915.03 156.1C915.03 156.1 914.97 156.1 914.85 156.1H899.01C898.89 156.1 898.83 156.1 898.83 156.1C898.83 156.1 898.83 156.04 898.83 155.92V140.08C898.83 139.96 898.83 139.9 898.83 139.9C898.83 139.9 898.89 139.9 899.01 139.9ZM917.01 139.9H932.85C932.97 139.9 933.03 139.9 933.03 139.9C933.03 139.9 933.03 139.96 933.03 140.08V155.92C933.03 156.04 933.03 156.1 933.03 156.1C933.03 156.1 932.97 156.1 932.85 156.1H917.01C916.89 156.1 916.83 156.1 916.83 156.1C916.83 156.1 916.83 156.04 916.83 155.92V140.08C916.83 139.96 916.83 139.9 916.83 139.9C916.83 139.9 916.89 139.9 917.01 139.9ZM935.01 139.9H950.85C950.97 139.9 951.03 139.9 951.03 139.9C951.03 139.9 951.03 139.96 951.03 140.08V155.92C951.03 156.04 951.03 156.1 951.03 156.1C951.03 156.1 950.97 156.1 950.85 156.1H935.01C934.89 156.1 934.83 156.1 934.83 156.1C934.83 156.1 934.83 156.04 934.83 155.92V140.08C934.83 139.96 934.83 139.9 934.83 139.9C934.83 139.9 934.89 139.9 935.01 139.9ZM953.01 139.9H968.85C968.97 139.9 969.03 139.9 969.03 139.9C969.03 139.9 969.03 139.96 969.03 140.08V155.92C969.03 156.04 969.03 156.1 969.03 156.1C969.03 156.1 968.97 156.1 968.85 156.1H953.01C952.89 156.1 952.83 156.1 952.83 156.1C952.83 156.1 952.83 156.04 952.83 155.92V140.08C952.83 139.96 952.83 139.9 952.83 139.9C952.83 139.9 952.89 139.9 953.01 139.9ZM881.01 157.9H896.85C896.97 157.9 897.03 157.9 897.03 157.9C897.03 157.9 897.03 157.96 897.03 158.08V173.92C897.03 174.04 897.03 174.1 897.03 174.1C897.03 174.1 896.97 174.1 896.85 174.1H881.01C880.89 174.1 880.83 174.1 880.83 174.1C880.83 174.1 880.83 174.04 880.83 173.92V158.08C880.83 157.96 880.83 157.9 880.83 157.9C880.83 157.9 880.89 157.9 881.01 157.9ZM953.01 157.9H968.85C968.97 157.9 969.03 157.9 969.03 157.9C969.03 157.9 969.03 157.96 969.03 158.08V173.92C969.03 174.04 969.03 174.1 969.03 174.1C969.03 174.1 968.97 174.1 968.85 174.1H953.01C952.89 174.1 952.83 174.1 952.83 174.1C952.83 174.1 952.83 174.04 952.83 173.92V158.08C952.83 157.96 952.83 157.9 952.83 157.9C952.83 157.9 952.89 157.9 953.01 157.9ZM899.01 175.9H914.85C914.97 175.9 915.03 175.9 915.03 175.9C915.03 175.9 915.03 175.96 915.03 176.08V191.92C915.03 192.04 915.03 192.1 915.03 192.1C915.03 192.1 914.97 192.1 914.85 192.1H899.01C898.89 192.1 898.83 192.1 898.83 192.1C898.83 192.1 898.83 192.04 898.83 191.92V176.08C898.83 175.96 898.83 175.9 898.83 175.9C898.83 175.9 898.89 175.9 899.01 175.9ZM917.01 175.9H932.85C932.97 175.9 933.03 175.9 933.03 175.9C933.03 175.9 933.03 175.96 933.03 176.08V191.92C933.03 192.04 933.03 192.1 933.03 192.1C933.03 192.1 932.97 192.1 932.85 192.1H917.01C916.89 192.1 916.83 192.1 916.83 192.1C916.83 192.1 916.83 192.04 916.83 191.92V176.08C916.83 175.96 916.83 175.9 916.83 175.9C916.83 175.9 916.89 175.9 917.01 175.9ZM935.01 175.9H950.85C950.97 175.9 951.03 175.9 951.03 175.9C951.03 175.9 951.03 175.96 951.03 176.08V191.92C951.03 192.04 951.03 192.1 951.03 192.1C951.03 192.1 950.97 192.1 950.85 192.1H935.01C934.89 192.1 934.83 192.1 934.83 192.1C934.83 192.1 934.83 192.04 934.83 191.92V176.08C934.83 175.96 934.83 175.9 934.83 175.9C934.83 175.9 934.89 175.9 935.01 175.9ZM953.01 175.9H968.85C968.97 175.9 969.03 175.9 969.03 175.9C969.03 175.9 969.03 175.96 969.03 176.08V191.92C969.03 192.04 969.03 192.1 969.03 192.1C969.03 192.1 968.97 192.1 968.85 192.1H953.01C952.89 192.1 952.83 192.1 952.83 192.1C952.83 192.1 952.83 192.04 952.83 191.92V176.08C952.83 175.96 952.83 175.9 952.83 175.9C952.83 175.9 952.89 175.9 953.01 175.9ZM1006.94 103.9H1022.78C1022.9 103.9 1022.96 103.9 1022.96 103.9C1022.96 103.9 1022.96 103.96 1022.96 104.08V119.92C1022.96 120.04 1022.96 120.1 1022.96 120.1C1022.96 120.1 1022.9 120.1 1022.78 120.1H1006.94C1006.82 120.1 1006.76 120.1 1006.76 120.1C1006.76 120.1 1006.76 120.04 1006.76 119.92V104.08C1006.76 103.96 1006.76 103.9 1006.76 103.9C1006.76 103.9 1006.82 103.9 1006.94 103.9ZM1024.94 103.9H1040.78C1040.9 103.9 1040.96 103.9 1040.96 103.9C1040.96 103.9 1040.96 103.96 1040.96 104.08V119.92C1040.96 120.04 1040.96 120.1 1040.96 120.1C1040.96 120.1 1040.9 120.1 1040.78 120.1H1024.94C1024.82 120.1 1024.76 120.1 1024.76 120.1C1024.76 120.1 1024.76 120.04 1024.76 119.92V104.08C1024.76 103.96 1024.76 103.9 1024.76 103.9C1024.76 103.9 1024.82 103.9 1024.94 103.9ZM1042.94 103.9H1058.78C1058.9 103.9 1058.96 103.9 1058.96 103.9C1058.96 103.9 1058.96 103.96 1058.96 104.08V119.92C1058.96 120.04 1058.96 120.1 1058.96 120.1C1058.96 120.1 1058.9 120.1 1058.78 120.1H1042.94C1042.82 120.1 1042.76 120.1 1042.76 120.1C1042.76 120.1 1042.76 120.04 1042.76 119.92V104.08C1042.76 103.96 1042.76 103.9 1042.76 103.9C1042.76 103.9 1042.82 103.9 1042.94 103.9ZM988.939 121.9H1004.78C1004.9 121.9 1004.96 121.9 1004.96 121.9C1004.96 121.9 1004.96 121.96 1004.96 122.08V137.92C1004.96 138.04 1004.96 138.1 1004.96 138.1C1004.96 138.1 1004.9 138.1 1004.78 138.1H988.939C988.819 138.1 988.759 138.1 988.759 138.1C988.759 138.1 988.759 138.04 988.759 137.92V122.08C988.759 121.96 988.759 121.9 988.759 121.9C988.759 121.9 988.819 121.9 988.939 121.9ZM1060.94 121.9H1076.78C1076.9 121.9 1076.96 121.9 1076.96 121.9C1076.96 121.9 1076.96 121.96 1076.96 122.08V137.92C1076.96 138.04 1076.96 138.1 1076.96 138.1C1076.96 138.1 1076.9 138.1 1076.78 138.1H1060.94C1060.82 138.1 1060.76 138.1 1060.76 138.1C1060.76 138.1 1060.76 138.04 1060.76 137.92V122.08C1060.76 121.96 1060.76 121.9 1060.76 121.9C1060.76 121.9 1060.82 121.9 1060.94 121.9ZM988.939 139.9H1004.78C1004.9 139.9 1004.96 139.9 1004.96 139.9C1004.96 139.9 1004.96 139.96 1004.96 140.08V155.92C1004.96 156.04 1004.96 156.1 1004.96 156.1C1004.96 156.1 1004.9 156.1 1004.78 156.1H988.939C988.819 156.1 988.759 156.1 988.759 156.1C988.759 156.1 988.759 156.04 988.759 155.92V140.08C988.759 139.96 988.759 139.9 988.759 139.9C988.759 139.9 988.819 139.9 988.939 139.9ZM988.939 157.9H1004.78C1004.9 157.9 1004.96 157.9 1004.96 157.9C1004.96 157.9 1004.96 157.96 1004.96 158.08V173.92C1004.96 174.04 1004.96 174.1 1004.96 174.1C1004.96 174.1 1004.9 174.1 1004.78 174.1H988.939C988.819 174.1 988.759 174.1 988.759 174.1C988.759 174.1 988.759 174.04 988.759 173.92V158.08C988.759 157.96 988.759 157.9 988.759 157.9C988.759 157.9 988.819 157.9 988.939 157.9ZM1060.94 157.9H1076.78C1076.9 157.9 1076.96 157.9 1076.96 157.9C1076.96 157.9 1076.96 157.96 1076.96 158.08V173.92C1076.96 174.04 1076.96 174.1 1076.96 174.1C1076.96 174.1 1076.9 174.1 1076.78 174.1H1060.94C1060.82 174.1 1060.76 174.1 1060.76 174.1C1060.76 174.1 1060.76 174.04 1060.76 173.92V158.08C1060.76 157.96 1060.76 157.9 1060.76 157.9C1060.76 157.9 1060.82 157.9 1060.94 157.9ZM1006.94 175.9H1022.78C1022.9 175.9 1022.96 175.9 1022.96 175.9C1022.96 175.9 1022.96 175.96 1022.96 176.08V191.92C1022.96 192.04 1022.96 192.1 1022.96 192.1C1022.96 192.1 1022.9 192.1 1022.78 192.1H1006.94C1006.82 192.1 1006.76 192.1 1006.76 192.1C1006.76 192.1 1006.76 192.04 1006.76 191.92V176.08C1006.76 175.96 1006.76 175.9 1006.76 175.9C1006.76 175.9 1006.82 175.9 1006.94 175.9ZM1024.94 175.9H1040.78C1040.9 175.9 1040.96 175.9 1040.96 175.9C1040.96 175.9 1040.96 175.96 1040.96 176.08V191.92C1040.96 192.04 1040.96 192.1 1040.96 192.1C1040.96 192.1 1040.9 192.1 1040.78 192.1H1024.94C1024.82 192.1 1024.76 192.1 1024.76 192.1C1024.76 192.1 1024.76 192.04 1024.76 191.92V176.08C1024.76 175.96 1024.76 175.9 1024.76 175.9C1024.76 175.9 1024.82 175.9 1024.94 175.9ZM1042.94 175.9H1058.78C1058.9 175.9 1058.96 175.9 1058.96 175.9C1058.96 175.9 1058.96 175.96 1058.96 176.08V191.92C1058.96 192.04 1058.96 192.1 1058.96 192.1C1058.96 192.1 1058.9 192.1 1058.78 192.1H1042.94C1042.82 192.1 1042.76 192.1 1042.76 192.1C1042.76 192.1 1042.76 192.04 1042.76 191.92V176.08C1042.76 175.96 1042.76 175.9 1042.76 175.9C1042.76 175.9 1042.82 175.9 1042.94 175.9ZM1114.87 103.9H1130.71C1130.83 103.9 1130.89 103.9 1130.89 103.9C1130.89 103.9 1130.89 103.96 1130.89 104.08V119.92C1130.89 120.04 1130.89 120.1 1130.89 120.1C1130.89 120.1 1130.83 120.1 1130.71 120.1H1114.87C1114.75 120.1 1114.69 120.1 1114.69 120.1C1114.69 120.1 1114.69 120.04 1114.69 119.92V104.08C1114.69 103.96 1114.69 103.9 1114.69 103.9C1114.69 103.9 1114.75 103.9 1114.87 103.9ZM1132.87 103.9H1148.71C1148.83 103.9 1148.89 103.9 1148.89 103.9C1148.89 103.9 1148.89 103.96 1148.89 104.08V119.92C1148.89 120.04 1148.89 120.1 1148.89 120.1C1148.89 120.1 1148.83 120.1 1148.71 120.1H1132.87C1132.75 120.1 1132.69 120.1 1132.69 120.1C1132.69 120.1 1132.69 120.04 1132.69 119.92V104.08C1132.69 103.96 1132.69 103.9 1132.69 103.9C1132.69 103.9 1132.75 103.9 1132.87 103.9ZM1150.87 103.9H1166.71C1166.83 103.9 1166.89 103.9 1166.89 103.9C1166.89 103.9 1166.89 103.96 1166.89 104.08V119.92C1166.89 120.04 1166.89 120.1 1166.89 120.1C1166.89 120.1 1166.83 120.1 1166.71 120.1H1150.87C1150.75 120.1 1150.69 120.1 1150.69 120.1C1150.69 120.1 1150.69 120.04 1150.69 119.92V104.08C1150.69 103.96 1150.69 103.9 1150.69 103.9C1150.69 103.9 1150.75 103.9 1150.87 103.9ZM1096.87 121.9H1112.71C1112.83 121.9 1112.89 121.9 1112.89 121.9C1112.89 121.9 1112.89 121.96 1112.89 122.08V137.92C1112.89 138.04 1112.89 138.1 1112.89 138.1C1112.89 138.1 1112.83 138.1 1112.71 138.1H1096.87C1096.75 138.1 1096.69 138.1 1096.69 138.1C1096.69 138.1 1096.69 138.04 1096.69 137.92V122.08C1096.69 121.96 1096.69 121.9 1096.69 121.9C1096.69 121.9 1096.75 121.9 1096.87 121.9ZM1168.87 121.9H1184.71C1184.83 121.9 1184.89 121.9 1184.89 121.9C1184.89 121.9 1184.89 121.96 1184.89 122.08V137.92C1184.89 138.04 1184.89 138.1 1184.89 138.1C1184.89 138.1 1184.83 138.1 1184.71 138.1H1168.87C1168.75 138.1 1168.69 138.1 1168.69 138.1C1168.69 138.1 1168.69 138.04 1168.69 137.92V122.08C1168.69 121.96 1168.69 121.9 1168.69 121.9C1168.69 121.9 1168.75 121.9 1168.87 121.9ZM1096.87 139.9H1112.71C1112.83 139.9 1112.89 139.9 1112.89 139.9C1112.89 139.9 1112.89 139.96 1112.89 140.08V155.92C1112.89 156.04 1112.89 156.1 1112.89 156.1C1112.89 156.1 1112.83 156.1 1112.71 156.1H1096.87C1096.75 156.1 1096.69 156.1 1096.69 156.1C1096.69 156.1 1096.69 156.04 1096.69 155.92V140.08C1096.69 139.96 1096.69 139.9 1096.69 139.9C1096.69 139.9 1096.75 139.9 1096.87 139.9ZM1096.87 157.9H1112.71C1112.83 157.9 1112.89 157.9 1112.89 157.9C1112.89 157.9 1112.89 157.96 1112.89 158.08V173.92C1112.89 174.04 1112.89 174.1 1112.89 174.1C1112.89 174.1 1112.83 174.1 1112.71 174.1H1096.87C1096.75 174.1 1096.69 174.1 1096.69 174.1C1096.69 174.1 1096.69 174.04 1096.69 173.92V158.08C1096.69 157.96 1096.69 157.9 1096.69 157.9C1096.69 157.9 1096.75 157.9 1096.87 157.9ZM1168.87 157.9H1184.71C1184.83 157.9 1184.89 157.9 1184.89 157.9C1184.89 157.9 1184.89 157.96 1184.89 158.08V173.92C1184.89 174.04 1184.89 174.1 1184.89 174.1C1184.89 174.1 1184.83 174.1 1184.71 174.1H1168.87C1168.75 174.1 1168.69 174.1 1168.69 174.1C1168.69 174.1 1168.69 174.04 1168.69 173.92V158.08C1168.69 157.96 1168.69 157.9 1168.69 157.9C1168.69 157.9 1168.75 157.9 1168.87 157.9ZM1114.87 175.9H1130.71C1130.83 175.9 1130.89 175.9 1130.89 175.9C1130.89 175.9 1130.89 175.96 1130.89 176.08V191.92C1130.89 192.04 1130.89 192.1 1130.89 192.1C1130.89 192.1 1130.83 192.1 1130.71 192.1H1114.87C1114.75 192.1 1114.69 192.1 1114.69 192.1C1114.69 192.1 1114.69 192.04 1114.69 191.92V176.08C1114.69 175.96 1114.69 175.9 1114.69 175.9C1114.69 175.9 1114.75 175.9 1114.87 175.9ZM1132.87 175.9H1148.71C1148.83 175.9 1148.89 175.9 1148.89 175.9C1148.89 175.9 1148.89 175.96 1148.89 176.08V191.92C1148.89 192.04 1148.89 192.1 1148.89 192.1C1148.89 192.1 1148.83 192.1 1148.71 192.1H1132.87C1132.75 192.1 1132.69 192.1 1132.69 192.1C1132.69 192.1 1132.69 192.04 1132.69 191.92V176.08C1132.69 175.96 1132.69 175.9 1132.69 175.9C1132.69 175.9 1132.75 175.9 1132.87 175.9ZM1150.87 175.9H1166.71C1166.83 175.9 1166.89 175.9 1166.89 175.9C1166.89 175.9 1166.89 175.96 1166.89 176.08V191.92C1166.89 192.04 1166.89 192.1 1166.89 192.1C1166.89 192.1 1166.83 192.1 1166.71 192.1H1150.87C1150.75 192.1 1150.69 192.1 1150.69 192.1C1150.69 192.1 1150.69 192.04 1150.69 191.92V176.08C1150.69 175.96 1150.69 175.9 1150.69 175.9C1150.69 175.9 1150.75 175.9 1150.87 175.9Z" fill="#615FFF"/>
</svg>
