<svg xmlns="http://www.w3.org/2000/svg" width="26" height="26" viewBox="0 0 26 26" fill="none">
  <mask id="mask0_429_19412" style="mask-type:alpha" maskUnits="userSpaceOnUse" x="0" y="0" width="26" height="26">
    <rect width="26" height="26" fill="#D9D9D9"/>
  </mask>
  <g mask="url(#mask0_429_19412)">
    <path d="M5.90419 17.3333C5.14585 17.3333 4.46426 17.0896 3.8594 16.6021C3.25453 16.1146 2.87085 15.4917 2.70835 14.7333L1.92294 11.1042L0.73127 11.1854L0.541687 9.01875C1.95002 8.89236 3.15523 8.80208 4.15731 8.74792C5.1594 8.69375 6.05766 8.66667 6.8521 8.66667C8.02572 8.66667 8.97363 8.72083 9.69585 8.82917C10.4181 8.9375 11.0681 9.12708 11.6459 9.39792C11.8986 9.52431 12.1379 9.61458 12.3636 9.66875C12.5893 9.72292 12.8014 9.75 13 9.75C13.1986 9.75 13.3927 9.72292 13.5823 9.66875C13.7719 9.61458 13.9931 9.53333 14.2459 9.425C14.8417 9.15417 15.5278 8.96007 16.3042 8.84271C17.0806 8.72535 18.1097 8.66667 19.3917 8.66667C20.2222 8.66667 21.1431 8.69375 22.1542 8.74792C23.1653 8.80208 24.2667 8.88333 25.4584 8.99167L25.2688 11.1313L24.1042 11.05L23.2917 14.7604C23.1292 15.5188 22.75 16.1372 22.1542 16.6156C21.5584 17.0941 20.8813 17.3333 20.1229 17.3333H17.7125C16.9542 17.3333 16.2861 17.1031 15.7084 16.6427C15.1306 16.1823 14.7514 15.591 14.5709 14.8688L13.8396 11.9708H12.1875L11.4563 14.8688C11.2577 15.609 10.8695 16.2049 10.2917 16.6563C9.71391 17.1076 9.05488 17.3333 8.3146 17.3333H5.90419ZM4.82085 14.3C4.87502 14.5528 5.00141 14.7604 5.20002 14.9229C5.39863 15.0854 5.62433 15.1667 5.8771 15.1667H8.28752C8.5403 15.1667 8.76599 15.0899 8.9646 14.9365C9.16322 14.783 9.2896 14.5889 9.34377 14.3542L10.1834 11.0771C9.69585 10.9868 9.14516 10.9281 8.53127 10.901C7.91738 10.874 7.35766 10.8604 6.8521 10.8604C6.43683 10.8604 5.98995 10.8649 5.51148 10.874C5.03301 10.883 4.58613 10.9056 4.17085 10.9417L4.82085 14.3ZM16.6563 14.3542C16.7104 14.5889 16.8368 14.783 17.0354 14.9365C17.234 15.0899 17.4597 15.1667 17.7125 15.1667H20.1229C20.3757 15.1667 20.6014 15.0854 20.8 14.9229C20.9986 14.7604 21.125 14.5528 21.1792 14.3L21.8834 10.9146C21.5222 10.8965 21.107 10.883 20.6375 10.874C20.1681 10.8649 19.7528 10.8604 19.3917 10.8604C18.85 10.8604 18.2497 10.874 17.5906 10.901C16.9316 10.9281 16.3403 10.9868 15.8167 11.0771L16.6563 14.3542Z" fill="#4f39f6"/>
  </g>
</svg>
