<svg width="417" height="90" viewBox="0 0 417 90" fill="none" xmlns="http://www.w3.org/2000/svg">
<g clip-path="url(#clip0_474_91)">
<path d="M19.305 59.9998C16.575 59.9998 14.1213 59.1223 11.9438 57.3673C9.76626 55.6123 8.38501 53.3698 7.80001 50.6398L4.9725 37.5748L0.682499 37.8673L0 30.0673C5.06999 29.6123 9.40874 29.2873 13.0163 29.0923C16.6238 28.8973 19.8575 28.7998 22.7175 28.7998C26.9425 28.7998 30.355 28.9948 32.955 29.3848C35.555 29.7748 37.895 30.4573 39.9751 31.4323C40.8848 31.8873 41.7463 32.2123 42.5588 32.4073C43.3714 32.6023 44.1349 32.6998 44.8499 32.6998C45.5648 32.6998 46.2636 32.6023 46.9462 32.4073C47.6287 32.2123 48.425 31.9198 49.3351 31.5298C51.48 30.5548 53.95 29.8561 56.745 29.4336C59.54 29.0111 63.2452 28.7998 67.86 28.7998C70.8502 28.7998 74.165 28.8973 77.805 29.0923C81.445 29.2873 85.41 29.5798 89.7001 29.9698L89.0176 37.6723L84.825 37.3798L81.9 50.7373C81.315 53.4673 79.9499 55.6936 77.805 57.4161C75.6601 59.1386 73.2226 59.9998 70.4927 59.9998H61.8149C59.085 59.9998 56.6798 59.1711 54.6001 57.5135C52.52 55.8561 51.1549 53.7273 50.5051 51.1273L47.8724 40.6948H41.9249L39.2926 51.1273C38.5776 53.7923 37.1801 55.9373 35.1 57.5623C33.02 59.1873 30.6475 59.9998 27.9825 59.9998H19.305ZM15.405 49.0798C15.6 49.9898 16.055 50.7373 16.77 51.3223C17.485 51.9073 18.2975 52.1998 19.2075 52.1998H27.885C28.795 52.1998 29.6075 51.9236 30.3225 51.371C31.0375 50.8186 31.4925 50.1198 31.6875 49.2748L34.71 37.4773C32.955 37.1523 30.9725 36.9411 28.7625 36.8436C26.5525 36.746 24.5375 36.6973 22.7175 36.6973C21.2225 36.6973 19.6137 36.7135 17.8912 36.746C16.1688 36.7786 14.56 36.8598 13.065 36.9898L15.405 49.0798ZM58.0126 49.2748C58.2077 50.1198 58.6624 50.8186 59.3777 51.371C60.0926 51.9236 60.9052 52.1998 61.8149 52.1998H70.4927C71.4024 52.1998 72.2149 51.9073 72.9299 51.3223C73.6448 50.7373 74.0999 49.9898 74.295 49.0798L76.8301 36.8923C75.5302 36.8273 74.0351 36.7786 72.3449 36.746C70.655 36.7135 69.16 36.6973 67.86 36.6973C65.9099 36.6973 63.7488 36.746 61.3764 36.8436C59.0036 36.9411 56.875 37.1523 54.99 37.4773L58.0126 49.2748Z" fill="#615FFF"/>
</g>
<path d="M124.356 23.1961H129.839C129.88 23.1961 129.901 23.1961 129.901 23.1961C129.901 23.1961 129.901 23.2169 129.901 23.2585V28.7415C129.901 28.7831 129.901 28.8038 129.901 28.8038C129.901 28.8038 129.88 28.8038 129.839 28.8038H124.356C124.314 28.8038 124.293 28.8038 124.293 28.8038C124.293 28.8038 124.293 28.7831 124.293 28.7415V23.2585C124.293 23.2169 124.293 23.1961 124.293 23.1961C124.293 23.1961 124.314 23.1961 124.356 23.1961ZM124.356 29.4269H129.839C129.88 29.4269 129.901 29.4269 129.901 29.4269C129.901 29.4269 129.901 29.4477 129.901 29.4892V34.9723C129.901 35.0138 129.901 35.0346 129.901 35.0346C129.901 35.0346 129.88 35.0346 129.839 35.0346H124.356C124.314 35.0346 124.293 35.0346 124.293 35.0346C124.293 35.0346 124.293 35.0138 124.293 34.9723V29.4892C124.293 29.4477 124.293 29.4269 124.293 29.4269C124.293 29.4269 124.314 29.4269 124.356 29.4269ZM118.125 35.6577H123.608C123.649 35.6577 123.67 35.6577 123.67 35.6577C123.67 35.6577 123.67 35.6785 123.67 35.72V41.2031C123.67 41.2446 123.67 41.2654 123.67 41.2654C123.67 41.2654 123.649 41.2654 123.608 41.2654H118.125C118.083 41.2654 118.063 41.2654 118.063 41.2654C118.063 41.2654 118.063 41.2446 118.063 41.2031V35.72C118.063 35.6785 118.063 35.6577 118.063 35.6577C118.063 35.6577 118.083 35.6577 118.125 35.6577ZM124.356 35.6577H129.839C129.88 35.6577 129.901 35.6577 129.901 35.6577C129.901 35.6577 129.901 35.6785 129.901 35.72V41.2031C129.901 41.2446 129.901 41.2654 129.901 41.2654C129.901 41.2654 129.88 41.2654 129.839 41.2654H124.356C124.314 41.2654 124.293 41.2654 124.293 41.2654C124.293 41.2654 124.293 41.2446 124.293 41.2031V35.72C124.293 35.6785 124.293 35.6577 124.293 35.6577C124.293 35.6577 124.314 35.6577 124.356 35.6577ZM130.586 35.6577H136.069C136.111 35.6577 136.132 35.6577 136.132 35.6577C136.132 35.6577 136.132 35.6785 136.132 35.72V41.2031C136.132 41.2446 136.132 41.2654 136.132 41.2654C136.132 41.2654 136.111 41.2654 136.069 41.2654H130.586C130.545 41.2654 130.524 41.2654 130.524 41.2654C130.524 41.2654 130.524 41.2446 130.524 41.2031V35.72C130.524 35.6785 130.524 35.6577 130.524 35.6577C130.524 35.6577 130.545 35.6577 130.586 35.6577ZM136.817 35.6577H142.3C142.342 35.6577 142.363 35.6577 142.363 35.6577C142.363 35.6577 142.363 35.6785 142.363 35.72V41.2031C142.363 41.2446 142.363 41.2654 142.363 41.2654C142.363 41.2654 142.342 41.2654 142.3 41.2654H136.817C136.776 41.2654 136.755 41.2654 136.755 41.2654C136.755 41.2654 136.755 41.2446 136.755 41.2031V35.72C136.755 35.6785 136.755 35.6577 136.755 35.6577C136.755 35.6577 136.776 35.6577 136.817 35.6577ZM124.356 41.8885H129.839C129.88 41.8885 129.901 41.8885 129.901 41.8885C129.901 41.8885 129.901 41.9092 129.901 41.9508V47.4338C129.901 47.4754 129.901 47.4962 129.901 47.4962C129.901 47.4962 129.88 47.4962 129.839 47.4962H124.356C124.314 47.4962 124.293 47.4962 124.293 47.4962C124.293 47.4962 124.293 47.4754 124.293 47.4338V41.9508C124.293 41.9092 124.293 41.8885 124.293 41.8885C124.293 41.8885 124.314 41.8885 124.356 41.8885ZM124.356 48.1192H129.839C129.88 48.1192 129.901 48.1192 129.901 48.1192C129.901 48.1192 129.901 48.14 129.901 48.1815V53.6646C129.901 53.7062 129.901 53.7269 129.901 53.7269C129.901 53.7269 129.88 53.7269 129.839 53.7269H124.356C124.314 53.7269 124.293 53.7269 124.293 53.7269C124.293 53.7269 124.293 53.7062 124.293 53.6646V48.1815C124.293 48.14 124.293 48.1192 124.293 48.1192C124.293 48.1192 124.314 48.1192 124.356 48.1192ZM124.356 54.35H129.839C129.88 54.35 129.901 54.35 129.901 54.35C129.901 54.35 129.901 54.3708 129.901 54.4123V59.8954C129.901 59.9369 129.901 59.9577 129.901 59.9577C129.901 59.9577 129.88 59.9577 129.839 59.9577H124.356C124.314 59.9577 124.293 59.9577 124.293 59.9577C124.293 59.9577 124.293 59.9369 124.293 59.8954V54.4123C124.293 54.3708 124.293 54.35 124.293 54.35C124.293 54.35 124.314 54.35 124.356 54.35ZM143.048 54.35H148.531C148.573 54.35 148.593 54.35 148.593 54.35C148.593 54.35 148.593 54.3708 148.593 54.4123V59.8954C148.593 59.9369 148.593 59.9577 148.593 59.9577C148.593 59.9577 148.573 59.9577 148.531 59.9577H143.048C143.006 59.9577 142.986 59.9577 142.986 59.9577C142.986 59.9577 142.986 59.9369 142.986 59.8954V54.4123C142.986 54.3708 142.986 54.35 142.986 54.35C142.986 54.35 143.006 54.35 143.048 54.35ZM130.586 60.5808H136.069C136.111 60.5808 136.132 60.5808 136.132 60.5808C136.132 60.5808 136.132 60.6015 136.132 60.6431V66.1262C136.132 66.1677 136.132 66.1885 136.132 66.1885C136.132 66.1885 136.111 66.1885 136.069 66.1885H130.586C130.545 66.1885 130.524 66.1885 130.524 66.1885C130.524 66.1885 130.524 66.1677 130.524 66.1262V60.6431C130.524 60.6015 130.524 60.5808 130.524 60.5808C130.524 60.5808 130.545 60.5808 130.586 60.5808ZM136.817 60.5808H142.3C142.342 60.5808 142.363 60.5808 142.363 60.5808C142.363 60.5808 142.363 60.6015 142.363 60.6431V66.1262C142.363 66.1677 142.363 66.1885 142.363 66.1885C142.363 66.1885 142.342 66.1885 142.3 66.1885H136.817C136.776 66.1885 136.755 66.1885 136.755 66.1885C136.755 66.1885 136.755 66.1677 136.755 66.1262V60.6431C136.755 60.6015 136.755 60.5808 136.755 60.5808C136.755 60.5808 136.776 60.5808 136.817 60.5808ZM155.485 23.1961H160.968C161.01 23.1961 161.031 23.1961 161.031 23.1961C161.031 23.1961 161.031 23.2169 161.031 23.2585V28.7415C161.031 28.7831 161.031 28.8038 161.031 28.8038C161.031 28.8038 161.01 28.8038 160.968 28.8038H155.485C155.444 28.8038 155.423 28.8038 155.423 28.8038C155.423 28.8038 155.423 28.7831 155.423 28.7415V23.2585C155.423 23.2169 155.423 23.1961 155.423 23.1961C155.423 23.1961 155.444 23.1961 155.485 23.1961ZM155.485 29.4269H160.968C161.01 29.4269 161.031 29.4269 161.031 29.4269C161.031 29.4269 161.031 29.4477 161.031 29.4892V34.9723C161.031 35.0138 161.031 35.0346 161.031 35.0346C161.031 35.0346 161.01 35.0346 160.968 35.0346H155.485C155.444 35.0346 155.423 35.0346 155.423 35.0346C155.423 35.0346 155.423 35.0138 155.423 34.9723V29.4892C155.423 29.4477 155.423 29.4269 155.423 29.4269C155.423 29.4269 155.444 29.4269 155.485 29.4269ZM155.485 35.6577H160.968C161.01 35.6577 161.031 35.6577 161.031 35.6577C161.031 35.6577 161.031 35.6785 161.031 35.72V41.2031C161.031 41.2446 161.031 41.2654 161.031 41.2654C161.031 41.2654 161.01 41.2654 160.968 41.2654H155.485C155.444 41.2654 155.423 41.2654 155.423 41.2654C155.423 41.2654 155.423 41.2446 155.423 41.2031V35.72C155.423 35.6785 155.423 35.6577 155.423 35.6577C155.423 35.6577 155.444 35.6577 155.485 35.6577ZM167.947 35.6577H173.43C173.471 35.6577 173.492 35.6577 173.492 35.6577C173.492 35.6577 173.492 35.6785 173.492 35.72V41.2031C173.492 41.2446 173.492 41.2654 173.492 41.2654C173.492 41.2654 173.471 41.2654 173.43 41.2654H167.947C167.905 41.2654 167.884 41.2654 167.884 41.2654C167.884 41.2654 167.884 41.2446 167.884 41.2031V35.72C167.884 35.6785 167.884 35.6577 167.884 35.6577C167.884 35.6577 167.905 35.6577 167.947 35.6577ZM174.177 35.6577H179.661C179.702 35.6577 179.723 35.6577 179.723 35.6577C179.723 35.6577 179.723 35.6785 179.723 35.72V41.2031C179.723 41.2446 179.723 41.2654 179.723 41.2654C179.723 41.2654 179.702 41.2654 179.661 41.2654H174.177C174.136 41.2654 174.115 41.2654 174.115 41.2654C174.115 41.2654 174.115 41.2446 174.115 41.2031V35.72C174.115 35.6785 174.115 35.6577 174.115 35.6577C174.115 35.6577 174.136 35.6577 174.177 35.6577ZM155.485 41.8885H160.968C161.01 41.8885 161.031 41.8885 161.031 41.8885C161.031 41.8885 161.031 41.9092 161.031 41.9508V47.4338C161.031 47.4754 161.031 47.4962 161.031 47.4962C161.031 47.4962 161.01 47.4962 160.968 47.4962H155.485C155.444 47.4962 155.423 47.4962 155.423 47.4962C155.423 47.4962 155.423 47.4754 155.423 47.4338V41.9508C155.423 41.9092 155.423 41.8885 155.423 41.8885C155.423 41.8885 155.444 41.8885 155.485 41.8885ZM161.716 41.8885H167.199C167.241 41.8885 167.261 41.8885 167.261 41.8885C167.261 41.8885 167.261 41.9092 167.261 41.9508V47.4338C167.261 47.4754 167.261 47.4962 167.261 47.4962C167.261 47.4962 167.241 47.4962 167.199 47.4962H161.716C161.674 47.4962 161.654 47.4962 161.654 47.4962C161.654 47.4962 161.654 47.4754 161.654 47.4338V41.9508C161.654 41.9092 161.654 41.8885 161.654 41.8885C161.654 41.8885 161.674 41.8885 161.716 41.8885ZM180.408 41.8885H185.891C185.933 41.8885 185.954 41.8885 185.954 41.8885C185.954 41.8885 185.954 41.9092 185.954 41.9508V47.4338C185.954 47.4754 185.954 47.4962 185.954 47.4962C185.954 47.4962 185.933 47.4962 185.891 47.4962H180.408C180.367 47.4962 180.346 47.4962 180.346 47.4962C180.346 47.4962 180.346 47.4754 180.346 47.4338V41.9508C180.346 41.9092 180.346 41.8885 180.346 41.8885C180.346 41.8885 180.367 41.8885 180.408 41.8885ZM155.485 48.1192H160.968C161.01 48.1192 161.031 48.1192 161.031 48.1192C161.031 48.1192 161.031 48.14 161.031 48.1815V53.6646C161.031 53.7062 161.031 53.7269 161.031 53.7269C161.031 53.7269 161.01 53.7269 160.968 53.7269H155.485C155.444 53.7269 155.423 53.7269 155.423 53.7269C155.423 53.7269 155.423 53.7062 155.423 53.6646V48.1815C155.423 48.14 155.423 48.1192 155.423 48.1192C155.423 48.1192 155.444 48.1192 155.485 48.1192ZM180.408 48.1192H185.891C185.933 48.1192 185.954 48.1192 185.954 48.1192C185.954 48.1192 185.954 48.14 185.954 48.1815V53.6646C185.954 53.7062 185.954 53.7269 185.954 53.7269C185.954 53.7269 185.933 53.7269 185.891 53.7269H180.408C180.367 53.7269 180.346 53.7269 180.346 53.7269C180.346 53.7269 180.346 53.7062 180.346 53.6646V48.1815C180.346 48.14 180.346 48.1192 180.346 48.1192C180.346 48.1192 180.367 48.1192 180.408 48.1192ZM155.485 54.35H160.968C161.01 54.35 161.031 54.35 161.031 54.35C161.031 54.35 161.031 54.3708 161.031 54.4123V59.8954C161.031 59.9369 161.031 59.9577 161.031 59.9577C161.031 59.9577 161.01 59.9577 160.968 59.9577H155.485C155.444 59.9577 155.423 59.9577 155.423 59.9577C155.423 59.9577 155.423 59.9369 155.423 59.8954V54.4123C155.423 54.3708 155.423 54.35 155.423 54.35C155.423 54.35 155.444 54.35 155.485 54.35ZM180.408 54.35H185.891C185.933 54.35 185.954 54.35 185.954 54.35C185.954 54.35 185.954 54.3708 185.954 54.4123V59.8954C185.954 59.9369 185.954 59.9577 185.954 59.9577C185.954 59.9577 185.933 59.9577 185.891 59.9577H180.408C180.367 59.9577 180.346 59.9577 180.346 59.9577C180.346 59.9577 180.346 59.9369 180.346 59.8954V54.4123C180.346 54.3708 180.346 54.35 180.346 54.35C180.346 54.35 180.367 54.35 180.408 54.35ZM155.485 60.5808H160.968C161.01 60.5808 161.031 60.5808 161.031 60.5808C161.031 60.5808 161.031 60.6015 161.031 60.6431V66.1262C161.031 66.1677 161.031 66.1885 161.031 66.1885C161.031 66.1885 161.01 66.1885 160.968 66.1885H155.485C155.444 66.1885 155.423 66.1885 155.423 66.1885C155.423 66.1885 155.423 66.1677 155.423 66.1262V60.6431C155.423 60.6015 155.423 60.5808 155.423 60.5808C155.423 60.5808 155.444 60.5808 155.485 60.5808ZM180.408 60.5808H185.891C185.933 60.5808 185.954 60.5808 185.954 60.5808C185.954 60.5808 185.954 60.6015 185.954 60.6431V66.1262C185.954 66.1677 185.954 66.1885 185.954 66.1885C185.954 66.1885 185.933 66.1885 185.891 66.1885H180.408C180.367 66.1885 180.346 66.1885 180.346 66.1885C180.346 66.1885 180.346 66.1677 180.346 66.1262V60.6431C180.346 60.6015 180.346 60.5808 180.346 60.5808C180.346 60.5808 180.367 60.5808 180.408 60.5808ZM199.076 35.6577H204.559C204.601 35.6577 204.622 35.6577 204.622 35.6577C204.622 35.6577 204.622 35.6785 204.622 35.72V41.2031C204.622 41.2446 204.622 41.2654 204.622 41.2654C204.622 41.2654 204.601 41.2654 204.559 41.2654H199.076C199.035 41.2654 199.014 41.2654 199.014 41.2654C199.014 41.2654 199.014 41.2446 199.014 41.2031V35.72C199.014 35.6785 199.014 35.6577 199.014 35.6577C199.014 35.6577 199.035 35.6577 199.076 35.6577ZM205.307 35.6577H210.79C210.832 35.6577 210.852 35.6577 210.852 35.6577C210.852 35.6577 210.852 35.6785 210.852 35.72V41.2031C210.852 41.2446 210.852 41.2654 210.852 41.2654C210.852 41.2654 210.832 41.2654 210.79 41.2654H205.307C205.265 41.2654 205.245 41.2654 205.245 41.2654C205.245 41.2654 205.245 41.2446 205.245 41.2031V35.72C205.245 35.6785 205.245 35.6577 205.245 35.6577C205.245 35.6577 205.265 35.6577 205.307 35.6577ZM211.538 35.6577H217.021C217.062 35.6577 217.083 35.6577 217.083 35.6577C217.083 35.6577 217.083 35.6785 217.083 35.72V41.2031C217.083 41.2446 217.083 41.2654 217.083 41.2654C217.083 41.2654 217.062 41.2654 217.021 41.2654H211.538C211.496 41.2654 211.475 41.2654 211.475 41.2654C211.475 41.2654 211.475 41.2446 211.475 41.2031V35.72C211.475 35.6785 211.475 35.6577 211.475 35.6577C211.475 35.6577 211.496 35.6577 211.538 35.6577ZM192.845 41.8885H198.329C198.37 41.8885 198.391 41.8885 198.391 41.8885C198.391 41.8885 198.391 41.9092 198.391 41.9508V47.4338C198.391 47.4754 198.391 47.4962 198.391 47.4962C198.391 47.4962 198.37 47.4962 198.329 47.4962H192.845C192.804 47.4962 192.783 47.4962 192.783 47.4962C192.783 47.4962 192.783 47.4754 192.783 47.4338V41.9508C192.783 41.9092 192.783 41.8885 192.783 41.8885C192.783 41.8885 192.804 41.8885 192.845 41.8885ZM217.769 41.8885H223.252C223.293 41.8885 223.314 41.8885 223.314 41.8885C223.314 41.8885 223.314 41.9092 223.314 41.9508V47.4338C223.314 47.4754 223.314 47.4962 223.314 47.4962C223.314 47.4962 223.293 47.4962 223.252 47.4962H217.769C217.727 47.4962 217.706 47.4962 217.706 47.4962C217.706 47.4962 217.706 47.4754 217.706 47.4338V41.9508C217.706 41.9092 217.706 41.8885 217.706 41.8885C217.706 41.8885 217.727 41.8885 217.769 41.8885ZM192.845 48.1192H198.329C198.37 48.1192 198.391 48.1192 198.391 48.1192C198.391 48.1192 198.391 48.14 198.391 48.1815V53.6646C198.391 53.7062 198.391 53.7269 198.391 53.7269C198.391 53.7269 198.37 53.7269 198.329 53.7269H192.845C192.804 53.7269 192.783 53.7269 192.783 53.7269C192.783 53.7269 192.783 53.7062 192.783 53.6646V48.1815C192.783 48.14 192.783 48.1192 192.783 48.1192C192.783 48.1192 192.804 48.1192 192.845 48.1192ZM199.076 48.1192H204.559C204.601 48.1192 204.622 48.1192 204.622 48.1192C204.622 48.1192 204.622 48.14 204.622 48.1815V53.6646C204.622 53.7062 204.622 53.7269 204.622 53.7269C204.622 53.7269 204.601 53.7269 204.559 53.7269H199.076C199.035 53.7269 199.014 53.7269 199.014 53.7269C199.014 53.7269 199.014 53.7062 199.014 53.6646V48.1815C199.014 48.14 199.014 48.1192 199.014 48.1192C199.014 48.1192 199.035 48.1192 199.076 48.1192ZM205.307 48.1192H210.79C210.832 48.1192 210.852 48.1192 210.852 48.1192C210.852 48.1192 210.852 48.14 210.852 48.1815V53.6646C210.852 53.7062 210.852 53.7269 210.852 53.7269C210.852 53.7269 210.832 53.7269 210.79 53.7269H205.307C205.265 53.7269 205.245 53.7269 205.245 53.7269C205.245 53.7269 205.245 53.7062 205.245 53.6646V48.1815C205.245 48.14 205.245 48.1192 205.245 48.1192C205.245 48.1192 205.265 48.1192 205.307 48.1192ZM211.538 48.1192H217.021C217.062 48.1192 217.083 48.1192 217.083 48.1192C217.083 48.1192 217.083 48.14 217.083 48.1815V53.6646C217.083 53.7062 217.083 53.7269 217.083 53.7269C217.083 53.7269 217.062 53.7269 217.021 53.7269H211.538C211.496 53.7269 211.475 53.7269 211.475 53.7269C211.475 53.7269 211.475 53.7062 211.475 53.6646V48.1815C211.475 48.14 211.475 48.1192 211.475 48.1192C211.475 48.1192 211.496 48.1192 211.538 48.1192ZM217.769 48.1192H223.252C223.293 48.1192 223.314 48.1192 223.314 48.1192C223.314 48.1192 223.314 48.14 223.314 48.1815V53.6646C223.314 53.7062 223.314 53.7269 223.314 53.7269C223.314 53.7269 223.293 53.7269 223.252 53.7269H217.769C217.727 53.7269 217.706 53.7269 217.706 53.7269C217.706 53.7269 217.706 53.7062 217.706 53.6646V48.1815C217.706 48.14 217.706 48.1192 217.706 48.1192C217.706 48.1192 217.727 48.1192 217.769 48.1192ZM192.845 54.35H198.329C198.37 54.35 198.391 54.35 198.391 54.35C198.391 54.35 198.391 54.3708 198.391 54.4123V59.8954C198.391 59.9369 198.391 59.9577 198.391 59.9577C198.391 59.9577 198.37 59.9577 198.329 59.9577H192.845C192.804 59.9577 192.783 59.9577 192.783 59.9577C192.783 59.9577 192.783 59.9369 192.783 59.8954V54.4123C192.783 54.3708 192.783 54.35 192.783 54.35C192.783 54.35 192.804 54.35 192.845 54.35ZM199.076 60.5808H204.559C204.601 60.5808 204.622 60.5808 204.622 60.5808C204.622 60.5808 204.622 60.6015 204.622 60.6431V66.1262C204.622 66.1677 204.622 66.1885 204.622 66.1885C204.622 66.1885 204.601 66.1885 204.559 66.1885H199.076C199.035 66.1885 199.014 66.1885 199.014 66.1885C199.014 66.1885 199.014 66.1677 199.014 66.1262V60.6431C199.014 60.6015 199.014 60.5808 199.014 60.5808C199.014 60.5808 199.035 60.5808 199.076 60.5808ZM205.307 60.5808H210.79C210.832 60.5808 210.852 60.5808 210.852 60.5808C210.852 60.5808 210.852 60.6015 210.852 60.6431V66.1262C210.852 66.1677 210.852 66.1885 210.852 66.1885C210.852 66.1885 210.832 66.1885 210.79 66.1885H205.307C205.265 66.1885 205.245 66.1885 205.245 66.1885C205.245 66.1885 205.245 66.1677 205.245 66.1262V60.6431C205.245 60.6015 205.245 60.5808 205.245 60.5808C205.245 60.5808 205.265 60.5808 205.307 60.5808ZM211.538 60.5808H217.021C217.062 60.5808 217.083 60.5808 217.083 60.5808C217.083 60.5808 217.083 60.6015 217.083 60.6431V66.1262C217.083 66.1677 217.083 66.1885 217.083 66.1885C217.083 66.1885 217.062 66.1885 217.021 66.1885H211.538C211.496 66.1885 211.475 66.1885 211.475 66.1885C211.475 66.1885 211.475 66.1677 211.475 66.1262V60.6431C211.475 60.6015 211.475 60.5808 211.475 60.5808C211.475 60.5808 211.496 60.5808 211.538 60.5808ZM236.436 23.1961H241.92C241.961 23.1961 241.982 23.1961 241.982 23.1961C241.982 23.1961 241.982 23.2169 241.982 23.2585V28.7415C241.982 28.7831 241.982 28.8038 241.982 28.8038C241.982 28.8038 241.961 28.8038 241.92 28.8038H236.436C236.395 28.8038 236.374 28.8038 236.374 28.8038C236.374 28.8038 236.374 28.7831 236.374 28.7415V23.2585C236.374 23.2169 236.374 23.1961 236.374 23.1961C236.374 23.1961 236.395 23.1961 236.436 23.1961ZM242.667 23.1961H248.15C248.192 23.1961 248.213 23.1961 248.213 23.1961C248.213 23.1961 248.213 23.2169 248.213 23.2585V28.7415C248.213 28.7831 248.213 28.8038 248.213 28.8038C248.213 28.8038 248.192 28.8038 248.15 28.8038H242.667C242.626 28.8038 242.605 28.8038 242.605 28.8038C242.605 28.8038 242.605 28.7831 242.605 28.7415V23.2585C242.605 23.2169 242.605 23.1961 242.605 23.1961C242.605 23.1961 242.626 23.1961 242.667 23.1961ZM248.898 23.1961H254.381C254.423 23.1961 254.443 23.1961 254.443 23.1961C254.443 23.1961 254.443 23.2169 254.443 23.2585V28.7415C254.443 28.7831 254.443 28.8038 254.443 28.8038C254.443 28.8038 254.423 28.8038 254.381 28.8038H248.898C248.856 28.8038 248.836 28.8038 248.836 28.8038C248.836 28.8038 248.836 28.7831 248.836 28.7415V23.2585C248.836 23.2169 248.836 23.1961 248.836 23.1961C248.836 23.1961 248.856 23.1961 248.898 23.1961ZM230.206 29.4269H235.689C235.73 29.4269 235.751 29.4269 235.751 29.4269C235.751 29.4269 235.751 29.4477 235.751 29.4892V34.9723C235.751 35.0138 235.751 35.0346 235.751 35.0346C235.751 35.0346 235.73 35.0346 235.689 35.0346H230.206C230.164 35.0346 230.143 35.0346 230.143 35.0346C230.143 35.0346 230.143 35.0138 230.143 34.9723V29.4892C230.143 29.4477 230.143 29.4269 230.143 29.4269C230.143 29.4269 230.164 29.4269 230.206 29.4269ZM255.129 29.4269H260.612C260.653 29.4269 260.674 29.4269 260.674 29.4269C260.674 29.4269 260.674 29.4477 260.674 29.4892V34.9723C260.674 35.0138 260.674 35.0346 260.674 35.0346C260.674 35.0346 260.653 35.0346 260.612 35.0346H255.129C255.087 35.0346 255.066 35.0346 255.066 35.0346C255.066 35.0346 255.066 35.0138 255.066 34.9723V29.4892C255.066 29.4477 255.066 29.4269 255.066 29.4269C255.066 29.4269 255.087 29.4269 255.129 29.4269ZM230.206 35.6577H235.689C235.73 35.6577 235.751 35.6577 235.751 35.6577C235.751 35.6577 235.751 35.6785 235.751 35.72V41.2031C235.751 41.2446 235.751 41.2654 235.751 41.2654C235.751 41.2654 235.73 41.2654 235.689 41.2654H230.206C230.164 41.2654 230.143 41.2654 230.143 41.2654C230.143 41.2654 230.143 41.2446 230.143 41.2031V35.72C230.143 35.6785 230.143 35.6577 230.143 35.6577C230.143 35.6577 230.164 35.6577 230.206 35.6577ZM236.436 41.8885H241.92C241.961 41.8885 241.982 41.8885 241.982 41.8885C241.982 41.8885 241.982 41.9092 241.982 41.9508V47.4338C241.982 47.4754 241.982 47.4962 241.982 47.4962C241.982 47.4962 241.961 47.4962 241.92 47.4962H236.436C236.395 47.4962 236.374 47.4962 236.374 47.4962C236.374 47.4962 236.374 47.4754 236.374 47.4338V41.9508C236.374 41.9092 236.374 41.8885 236.374 41.8885C236.374 41.8885 236.395 41.8885 236.436 41.8885ZM242.667 41.8885H248.15C248.192 41.8885 248.213 41.8885 248.213 41.8885C248.213 41.8885 248.213 41.9092 248.213 41.9508V47.4338C248.213 47.4754 248.213 47.4962 248.213 47.4962C248.213 47.4962 248.192 47.4962 248.15 47.4962H242.667C242.626 47.4962 242.605 47.4962 242.605 47.4962C242.605 47.4962 242.605 47.4754 242.605 47.4338V41.9508C242.605 41.9092 242.605 41.8885 242.605 41.8885C242.605 41.8885 242.626 41.8885 242.667 41.8885ZM248.898 41.8885H254.381C254.423 41.8885 254.443 41.8885 254.443 41.8885C254.443 41.8885 254.443 41.9092 254.443 41.9508V47.4338C254.443 47.4754 254.443 47.4962 254.443 47.4962C254.443 47.4962 254.423 47.4962 254.381 47.4962H248.898C248.856 47.4962 248.836 47.4962 248.836 47.4962C248.836 47.4962 248.836 47.4754 248.836 47.4338V41.9508C248.836 41.9092 248.836 41.8885 248.836 41.8885C248.836 41.8885 248.856 41.8885 248.898 41.8885ZM255.129 48.1192H260.612C260.653 48.1192 260.674 48.1192 260.674 48.1192C260.674 48.1192 260.674 48.14 260.674 48.1815V53.6646C260.674 53.7062 260.674 53.7269 260.674 53.7269C260.674 53.7269 260.653 53.7269 260.612 53.7269H255.129C255.087 53.7269 255.066 53.7269 255.066 53.7269C255.066 53.7269 255.066 53.7062 255.066 53.6646V48.1815C255.066 48.14 255.066 48.1192 255.066 48.1192C255.066 48.1192 255.087 48.1192 255.129 48.1192ZM230.206 54.35H235.689C235.73 54.35 235.751 54.35 235.751 54.35C235.751 54.35 235.751 54.3708 235.751 54.4123V59.8954C235.751 59.9369 235.751 59.9577 235.751 59.9577C235.751 59.9577 235.73 59.9577 235.689 59.9577H230.206C230.164 59.9577 230.143 59.9577 230.143 59.9577C230.143 59.9577 230.143 59.9369 230.143 59.8954V54.4123C230.143 54.3708 230.143 54.35 230.143 54.35C230.143 54.35 230.164 54.35 230.206 54.35ZM255.129 54.35H260.612C260.653 54.35 260.674 54.35 260.674 54.35C260.674 54.35 260.674 54.3708 260.674 54.4123V59.8954C260.674 59.9369 260.674 59.9577 260.674 59.9577C260.674 59.9577 260.653 59.9577 260.612 59.9577H255.129C255.087 59.9577 255.066 59.9577 255.066 59.9577C255.066 59.9577 255.066 59.9369 255.066 59.8954V54.4123C255.066 54.3708 255.066 54.35 255.066 54.35C255.066 54.35 255.087 54.35 255.129 54.35ZM236.436 60.5808H241.92C241.961 60.5808 241.982 60.5808 241.982 60.5808C241.982 60.5808 241.982 60.6015 241.982 60.6431V66.1262C241.982 66.1677 241.982 66.1885 241.982 66.1885C241.982 66.1885 241.961 66.1885 241.92 66.1885H236.436C236.395 66.1885 236.374 66.1885 236.374 66.1885C236.374 66.1885 236.374 66.1677 236.374 66.1262V60.6431C236.374 60.6015 236.374 60.5808 236.374 60.5808C236.374 60.5808 236.395 60.5808 236.436 60.5808ZM242.667 60.5808H248.15C248.192 60.5808 248.213 60.5808 248.213 60.5808C248.213 60.5808 248.213 60.6015 248.213 60.6431V66.1262C248.213 66.1677 248.213 66.1885 248.213 66.1885C248.213 66.1885 248.192 66.1885 248.15 66.1885H242.667C242.626 66.1885 242.605 66.1885 242.605 66.1885C242.605 66.1885 242.605 66.1677 242.605 66.1262V60.6431C242.605 60.6015 242.605 60.5808 242.605 60.5808C242.605 60.5808 242.626 60.5808 242.667 60.5808ZM248.898 60.5808H254.381C254.423 60.5808 254.443 60.5808 254.443 60.5808C254.443 60.5808 254.443 60.6015 254.443 60.6431V66.1262C254.443 66.1677 254.443 66.1885 254.443 66.1885C254.443 66.1885 254.423 66.1885 254.381 66.1885H248.898C248.856 66.1885 248.836 66.1885 248.836 66.1885C248.836 66.1885 248.836 66.1677 248.836 66.1262V60.6431C248.836 60.6015 248.836 60.5808 248.836 60.5808C248.836 60.5808 248.856 60.5808 248.898 60.5808ZM273.797 23.1961H279.28C279.321 23.1961 279.342 23.1961 279.342 23.1961C279.342 23.1961 279.342 23.2169 279.342 23.2585V28.7415C279.342 28.7831 279.342 28.8038 279.342 28.8038C279.342 28.8038 279.321 28.8038 279.28 28.8038H273.797C273.755 28.8038 273.734 28.8038 273.734 28.8038C273.734 28.8038 273.734 28.7831 273.734 28.7415V23.2585C273.734 23.2169 273.734 23.1961 273.734 23.1961C273.734 23.1961 273.755 23.1961 273.797 23.1961ZM273.797 29.4269H279.28C279.321 29.4269 279.342 29.4269 279.342 29.4269C279.342 29.4269 279.342 29.4477 279.342 29.4892V34.9723C279.342 35.0138 279.342 35.0346 279.342 35.0346C279.342 35.0346 279.321 35.0346 279.28 35.0346H273.797C273.755 35.0346 273.734 35.0346 273.734 35.0346C273.734 35.0346 273.734 35.0138 273.734 34.9723V29.4892C273.734 29.4477 273.734 29.4269 273.734 29.4269C273.734 29.4269 273.755 29.4269 273.797 29.4269ZM267.566 35.6577H273.049C273.091 35.6577 273.111 35.6577 273.111 35.6577C273.111 35.6577 273.111 35.6785 273.111 35.72V41.2031C273.111 41.2446 273.111 41.2654 273.111 41.2654C273.111 41.2654 273.091 41.2654 273.049 41.2654H267.566C267.524 41.2654 267.504 41.2654 267.504 41.2654C267.504 41.2654 267.504 41.2446 267.504 41.2031V35.72C267.504 35.6785 267.504 35.6577 267.504 35.6577C267.504 35.6577 267.524 35.6577 267.566 35.6577ZM273.797 35.6577H279.28C279.321 35.6577 279.342 35.6577 279.342 35.6577C279.342 35.6577 279.342 35.6785 279.342 35.72V41.2031C279.342 41.2446 279.342 41.2654 279.342 41.2654C279.342 41.2654 279.321 41.2654 279.28 41.2654H273.797C273.755 41.2654 273.734 41.2654 273.734 41.2654C273.734 41.2654 273.734 41.2446 273.734 41.2031V35.72C273.734 35.6785 273.734 35.6577 273.734 35.6577C273.734 35.6577 273.755 35.6577 273.797 35.6577ZM280.028 35.6577H285.511C285.552 35.6577 285.573 35.6577 285.573 35.6577C285.573 35.6577 285.573 35.6785 285.573 35.72V41.2031C285.573 41.2446 285.573 41.2654 285.573 41.2654C285.573 41.2654 285.552 41.2654 285.511 41.2654H280.028C279.986 41.2654 279.965 41.2654 279.965 41.2654C279.965 41.2654 279.965 41.2446 279.965 41.2031V35.72C279.965 35.6785 279.965 35.6577 279.965 35.6577C279.965 35.6577 279.986 35.6577 280.028 35.6577ZM286.258 35.6577H291.741C291.783 35.6577 291.804 35.6577 291.804 35.6577C291.804 35.6577 291.804 35.6785 291.804 35.72V41.2031C291.804 41.2446 291.804 41.2654 291.804 41.2654C291.804 41.2654 291.783 41.2654 291.741 41.2654H286.258C286.217 41.2654 286.196 41.2654 286.196 41.2654C286.196 41.2654 286.196 41.2446 286.196 41.2031V35.72C286.196 35.6785 286.196 35.6577 286.196 35.6577C286.196 35.6577 286.217 35.6577 286.258 35.6577ZM273.797 41.8885H279.28C279.321 41.8885 279.342 41.8885 279.342 41.8885C279.342 41.8885 279.342 41.9092 279.342 41.9508V47.4338C279.342 47.4754 279.342 47.4962 279.342 47.4962C279.342 47.4962 279.321 47.4962 279.28 47.4962H273.797C273.755 47.4962 273.734 47.4962 273.734 47.4962C273.734 47.4962 273.734 47.4754 273.734 47.4338V41.9508C273.734 41.9092 273.734 41.8885 273.734 41.8885C273.734 41.8885 273.755 41.8885 273.797 41.8885ZM273.797 48.1192H279.28C279.321 48.1192 279.342 48.1192 279.342 48.1192C279.342 48.1192 279.342 48.14 279.342 48.1815V53.6646C279.342 53.7062 279.342 53.7269 279.342 53.7269C279.342 53.7269 279.321 53.7269 279.28 53.7269H273.797C273.755 53.7269 273.734 53.7269 273.734 53.7269C273.734 53.7269 273.734 53.7062 273.734 53.6646V48.1815C273.734 48.14 273.734 48.1192 273.734 48.1192C273.734 48.1192 273.755 48.1192 273.797 48.1192ZM273.797 54.35H279.28C279.321 54.35 279.342 54.35 279.342 54.35C279.342 54.35 279.342 54.3708 279.342 54.4123V59.8954C279.342 59.9369 279.342 59.9577 279.342 59.9577C279.342 59.9577 279.321 59.9577 279.28 59.9577H273.797C273.755 59.9577 273.734 59.9577 273.734 59.9577C273.734 59.9577 273.734 59.9369 273.734 59.8954V54.4123C273.734 54.3708 273.734 54.35 273.734 54.35C273.734 54.35 273.755 54.35 273.797 54.35ZM292.489 54.35H297.972C298.014 54.35 298.034 54.35 298.034 54.35C298.034 54.35 298.034 54.3708 298.034 54.4123V59.8954C298.034 59.9369 298.034 59.9577 298.034 59.9577C298.034 59.9577 298.014 59.9577 297.972 59.9577H292.489C292.448 59.9577 292.427 59.9577 292.427 59.9577C292.427 59.9577 292.427 59.9369 292.427 59.8954V54.4123C292.427 54.3708 292.427 54.35 292.427 54.35C292.427 54.35 292.448 54.35 292.489 54.35ZM280.028 60.5808H285.511C285.552 60.5808 285.573 60.5808 285.573 60.5808C285.573 60.5808 285.573 60.6015 285.573 60.6431V66.1262C285.573 66.1677 285.573 66.1885 285.573 66.1885C285.573 66.1885 285.552 66.1885 285.511 66.1885H280.028C279.986 66.1885 279.965 66.1885 279.965 66.1885C279.965 66.1885 279.965 66.1677 279.965 66.1262V60.6431C279.965 60.6015 279.965 60.5808 279.965 60.5808C279.965 60.5808 279.986 60.5808 280.028 60.5808ZM286.258 60.5808H291.741C291.783 60.5808 291.804 60.5808 291.804 60.5808C291.804 60.5808 291.804 60.6015 291.804 60.6431V66.1262C291.804 66.1677 291.804 66.1885 291.804 66.1885C291.804 66.1885 291.783 66.1885 291.741 66.1885H286.258C286.217 66.1885 286.196 66.1885 286.196 66.1885C286.196 66.1885 286.196 66.1677 286.196 66.1262V60.6431C286.196 60.6015 286.196 60.5808 286.196 60.5808C286.196 60.5808 286.217 60.5808 286.258 60.5808ZM311.157 35.6577H316.64C316.682 35.6577 316.702 35.6577 316.702 35.6577C316.702 35.6577 316.702 35.6785 316.702 35.72V41.2031C316.702 41.2446 316.702 41.2654 316.702 41.2654C316.702 41.2654 316.682 41.2654 316.64 41.2654H311.157C311.115 41.2654 311.095 41.2654 311.095 41.2654C311.095 41.2654 311.095 41.2446 311.095 41.2031V35.72C311.095 35.6785 311.095 35.6577 311.095 35.6577C311.095 35.6577 311.115 35.6577 311.157 35.6577ZM317.388 35.6577H322.871C322.912 35.6577 322.933 35.6577 322.933 35.6577C322.933 35.6577 322.933 35.6785 322.933 35.72V41.2031C322.933 41.2446 322.933 41.2654 322.933 41.2654C322.933 41.2654 322.912 41.2654 322.871 41.2654H317.388C317.346 41.2654 317.325 41.2654 317.325 41.2654C317.325 41.2654 317.325 41.2446 317.325 41.2031V35.72C317.325 35.6785 317.325 35.6577 317.325 35.6577C317.325 35.6577 317.346 35.6577 317.388 35.6577ZM323.619 35.6577H329.102C329.143 35.6577 329.164 35.6577 329.164 35.6577C329.164 35.6577 329.164 35.6785 329.164 35.72V41.2031C329.164 41.2446 329.164 41.2654 329.164 41.2654C329.164 41.2654 329.143 41.2654 329.102 41.2654H323.619C323.577 41.2654 323.556 41.2654 323.556 41.2654C323.556 41.2654 323.556 41.2446 323.556 41.2031V35.72C323.556 35.6785 323.556 35.6577 323.556 35.6577C323.556 35.6577 323.577 35.6577 323.619 35.6577ZM329.849 41.8885H335.332C335.374 41.8885 335.395 41.8885 335.395 41.8885C335.395 41.8885 335.395 41.9092 335.395 41.9508V47.4338C335.395 47.4754 335.395 47.4962 335.395 47.4962C335.395 47.4962 335.374 47.4962 335.332 47.4962H329.849C329.808 47.4962 329.787 47.4962 329.787 47.4962C329.787 47.4962 329.787 47.4754 329.787 47.4338V41.9508C329.787 41.9092 329.787 41.8885 329.787 41.8885C329.787 41.8885 329.808 41.8885 329.849 41.8885ZM311.157 48.1192H316.64C316.682 48.1192 316.702 48.1192 316.702 48.1192C316.702 48.1192 316.702 48.14 316.702 48.1815V53.6646C316.702 53.7062 316.702 53.7269 316.702 53.7269C316.702 53.7269 316.682 53.7269 316.64 53.7269H311.157C311.115 53.7269 311.095 53.7269 311.095 53.7269C311.095 53.7269 311.095 53.7062 311.095 53.6646V48.1815C311.095 48.14 311.095 48.1192 311.095 48.1192C311.095 48.1192 311.115 48.1192 311.157 48.1192ZM317.388 48.1192H322.871C322.912 48.1192 322.933 48.1192 322.933 48.1192C322.933 48.1192 322.933 48.14 322.933 48.1815V53.6646C322.933 53.7062 322.933 53.7269 322.933 53.7269C322.933 53.7269 322.912 53.7269 322.871 53.7269H317.388C317.346 53.7269 317.325 53.7269 317.325 53.7269C317.325 53.7269 317.325 53.7062 317.325 53.6646V48.1815C317.325 48.14 317.325 48.1192 317.325 48.1192C317.325 48.1192 317.346 48.1192 317.388 48.1192ZM323.619 48.1192H329.102C329.143 48.1192 329.164 48.1192 329.164 48.1192C329.164 48.1192 329.164 48.14 329.164 48.1815V53.6646C329.164 53.7062 329.164 53.7269 329.164 53.7269C329.164 53.7269 329.143 53.7269 329.102 53.7269H323.619C323.577 53.7269 323.556 53.7269 323.556 53.7269C323.556 53.7269 323.556 53.7062 323.556 53.6646V48.1815C323.556 48.14 323.556 48.1192 323.556 48.1192C323.556 48.1192 323.577 48.1192 323.619 48.1192ZM329.849 48.1192H335.332C335.374 48.1192 335.395 48.1192 335.395 48.1192C335.395 48.1192 335.395 48.14 335.395 48.1815V53.6646C335.395 53.7062 335.395 53.7269 335.395 53.7269C335.395 53.7269 335.374 53.7269 335.332 53.7269H329.849C329.808 53.7269 329.787 53.7269 329.787 53.7269C329.787 53.7269 329.787 53.7062 329.787 53.6646V48.1815C329.787 48.14 329.787 48.1192 329.787 48.1192C329.787 48.1192 329.808 48.1192 329.849 48.1192ZM304.926 54.35H310.409C310.451 54.35 310.472 54.35 310.472 54.35C310.472 54.35 310.472 54.3708 310.472 54.4123V59.8954C310.472 59.9369 310.472 59.9577 310.472 59.9577C310.472 59.9577 310.451 59.9577 310.409 59.9577H304.926C304.885 59.9577 304.864 59.9577 304.864 59.9577C304.864 59.9577 304.864 59.9369 304.864 59.8954V54.4123C304.864 54.3708 304.864 54.35 304.864 54.35C304.864 54.35 304.885 54.35 304.926 54.35ZM329.849 54.35H335.332C335.374 54.35 335.395 54.35 335.395 54.35C335.395 54.35 335.395 54.3708 335.395 54.4123V59.8954C335.395 59.9369 335.395 59.9577 335.395 59.9577C335.395 59.9577 335.374 59.9577 335.332 59.9577H329.849C329.808 59.9577 329.787 59.9577 329.787 59.9577C329.787 59.9577 329.787 59.9369 329.787 59.8954V54.4123C329.787 54.3708 329.787 54.35 329.787 54.35C329.787 54.35 329.808 54.35 329.849 54.35ZM311.157 60.5808H316.64C316.682 60.5808 316.702 60.5808 316.702 60.5808C316.702 60.5808 316.702 60.6015 316.702 60.6431V66.1262C316.702 66.1677 316.702 66.1885 316.702 66.1885C316.702 66.1885 316.682 66.1885 316.64 66.1885H311.157C311.115 66.1885 311.095 66.1885 311.095 66.1885C311.095 66.1885 311.095 66.1677 311.095 66.1262V60.6431C311.095 60.6015 311.095 60.5808 311.095 60.5808C311.095 60.5808 311.115 60.5808 311.157 60.5808ZM317.388 60.5808H322.871C322.912 60.5808 322.933 60.5808 322.933 60.5808C322.933 60.5808 322.933 60.6015 322.933 60.6431V66.1262C322.933 66.1677 322.933 66.1885 322.933 66.1885C322.933 66.1885 322.912 66.1885 322.871 66.1885H317.388C317.346 66.1885 317.325 66.1885 317.325 66.1885C317.325 66.1885 317.325 66.1677 317.325 66.1262V60.6431C317.325 60.6015 317.325 60.5808 317.325 60.5808C317.325 60.5808 317.346 60.5808 317.388 60.5808ZM323.619 60.5808H329.102C329.143 60.5808 329.164 60.5808 329.164 60.5808C329.164 60.5808 329.164 60.6015 329.164 60.6431V66.1262C329.164 66.1677 329.164 66.1885 329.164 66.1885C329.164 66.1885 329.143 66.1885 329.102 66.1885H323.619C323.577 66.1885 323.556 66.1885 323.556 66.1885C323.556 66.1885 323.556 66.1677 323.556 66.1262V60.6431C323.556 60.6015 323.556 60.5808 323.556 60.5808C323.556 60.5808 323.577 60.5808 323.619 60.5808ZM329.849 60.5808H335.332C335.374 60.5808 335.395 60.5808 335.395 60.5808C335.395 60.5808 335.395 60.6015 335.395 60.6431V66.1262C335.395 66.1677 335.395 66.1885 335.395 66.1885C335.395 66.1885 335.374 66.1885 335.332 66.1885H329.849C329.808 66.1885 329.787 66.1885 329.787 66.1885C329.787 66.1885 329.787 66.1677 329.787 66.1262V60.6431C329.787 60.6015 329.787 60.5808 329.787 60.5808C329.787 60.5808 329.808 60.5808 329.849 60.5808ZM348.517 35.6577H354C354.042 35.6577 354.063 35.6577 354.063 35.6577C354.063 35.6577 354.063 35.6785 354.063 35.72V41.2031C354.063 41.2446 354.063 41.2654 354.063 41.2654C354.063 41.2654 354.042 41.2654 354 41.2654H348.517C348.476 41.2654 348.455 41.2654 348.455 41.2654C348.455 41.2654 348.455 41.2446 348.455 41.2031V35.72C348.455 35.6785 348.455 35.6577 348.455 35.6577C348.455 35.6577 348.476 35.6577 348.517 35.6577ZM354.748 35.6577H360.231C360.273 35.6577 360.293 35.6577 360.293 35.6577C360.293 35.6577 360.293 35.6785 360.293 35.72V41.2031C360.293 41.2446 360.293 41.2654 360.293 41.2654C360.293 41.2654 360.273 41.2654 360.231 41.2654H354.748C354.707 41.2654 354.686 41.2654 354.686 41.2654C354.686 41.2654 354.686 41.2446 354.686 41.2031V35.72C354.686 35.6785 354.686 35.6577 354.686 35.6577C354.686 35.6577 354.707 35.6577 354.748 35.6577ZM360.979 35.6577H366.462C366.503 35.6577 366.524 35.6577 366.524 35.6577C366.524 35.6577 366.524 35.6785 366.524 35.72V41.2031C366.524 41.2446 366.524 41.2654 366.524 41.2654C366.524 41.2654 366.503 41.2654 366.462 41.2654H360.979C360.937 41.2654 360.917 41.2654 360.917 41.2654C360.917 41.2654 360.917 41.2446 360.917 41.2031V35.72C360.917 35.6785 360.917 35.6577 360.917 35.6577C360.917 35.6577 360.937 35.6577 360.979 35.6577ZM342.287 41.8885H347.77C347.811 41.8885 347.832 41.8885 347.832 41.8885C347.832 41.8885 347.832 41.9092 347.832 41.9508V47.4338C347.832 47.4754 347.832 47.4962 347.832 47.4962C347.832 47.4962 347.811 47.4962 347.77 47.4962H342.287C342.245 47.4962 342.224 47.4962 342.224 47.4962C342.224 47.4962 342.224 47.4754 342.224 47.4338V41.9508C342.224 41.9092 342.224 41.8885 342.224 41.8885C342.224 41.8885 342.245 41.8885 342.287 41.8885ZM367.21 41.8885H372.693C372.734 41.8885 372.755 41.8885 372.755 41.8885C372.755 41.8885 372.755 41.9092 372.755 41.9508V47.4338C372.755 47.4754 372.755 47.4962 372.755 47.4962C372.755 47.4962 372.734 47.4962 372.693 47.4962H367.21C367.168 47.4962 367.147 47.4962 367.147 47.4962C367.147 47.4962 367.147 47.4754 367.147 47.4338V41.9508C367.147 41.9092 367.147 41.8885 367.147 41.8885C367.147 41.8885 367.168 41.8885 367.21 41.8885ZM342.287 48.1192H347.77C347.811 48.1192 347.832 48.1192 347.832 48.1192C347.832 48.1192 347.832 48.14 347.832 48.1815V53.6646C347.832 53.7062 347.832 53.7269 347.832 53.7269C347.832 53.7269 347.811 53.7269 347.77 53.7269H342.287C342.245 53.7269 342.224 53.7269 342.224 53.7269C342.224 53.7269 342.224 53.7062 342.224 53.6646V48.1815C342.224 48.14 342.224 48.1192 342.224 48.1192C342.224 48.1192 342.245 48.1192 342.287 48.1192ZM342.287 54.35H347.77C347.811 54.35 347.832 54.35 347.832 54.35C347.832 54.35 347.832 54.3708 347.832 54.4123V59.8954C347.832 59.9369 347.832 59.9577 347.832 59.9577C347.832 59.9577 347.811 59.9577 347.77 59.9577H342.287C342.245 59.9577 342.224 59.9577 342.224 59.9577C342.224 59.9577 342.224 59.9369 342.224 59.8954V54.4123C342.224 54.3708 342.224 54.35 342.224 54.35C342.224 54.35 342.245 54.35 342.287 54.35ZM367.21 54.35H372.693C372.734 54.35 372.755 54.35 372.755 54.35C372.755 54.35 372.755 54.3708 372.755 54.4123V59.8954C372.755 59.9369 372.755 59.9577 372.755 59.9577C372.755 59.9577 372.734 59.9577 372.693 59.9577H367.21C367.168 59.9577 367.147 59.9577 367.147 59.9577C367.147 59.9577 367.147 59.9369 367.147 59.8954V54.4123C367.147 54.3708 367.147 54.35 367.147 54.35C367.147 54.35 367.168 54.35 367.21 54.35ZM348.517 60.5808H354C354.042 60.5808 354.063 60.5808 354.063 60.5808C354.063 60.5808 354.063 60.6015 354.063 60.6431V66.1262C354.063 66.1677 354.063 66.1885 354.063 66.1885C354.063 66.1885 354.042 66.1885 354 66.1885H348.517C348.476 66.1885 348.455 66.1885 348.455 66.1885C348.455 66.1885 348.455 66.1677 348.455 66.1262V60.6431C348.455 60.6015 348.455 60.5808 348.455 60.5808C348.455 60.5808 348.476 60.5808 348.517 60.5808ZM354.748 60.5808H360.231C360.273 60.5808 360.293 60.5808 360.293 60.5808C360.293 60.5808 360.293 60.6015 360.293 60.6431V66.1262C360.293 66.1677 360.293 66.1885 360.293 66.1885C360.293 66.1885 360.273 66.1885 360.231 66.1885H354.748C354.707 66.1885 354.686 66.1885 354.686 66.1885C354.686 66.1885 354.686 66.1677 354.686 66.1262V60.6431C354.686 60.6015 354.686 60.5808 354.686 60.5808C354.686 60.5808 354.707 60.5808 354.748 60.5808ZM360.979 60.5808H366.462C366.503 60.5808 366.524 60.5808 366.524 60.5808C366.524 60.5808 366.524 60.6015 366.524 60.6431V66.1262C366.524 66.1677 366.524 66.1885 366.524 66.1885C366.524 66.1885 366.503 66.1885 366.462 66.1885H360.979C360.937 66.1885 360.917 66.1885 360.917 66.1885C360.917 66.1885 360.917 66.1677 360.917 66.1262V60.6431C360.917 60.6015 360.917 60.5808 360.917 60.5808C360.917 60.5808 360.937 60.5808 360.979 60.5808ZM385.878 35.6577H391.361C391.402 35.6577 391.423 35.6577 391.423 35.6577C391.423 35.6577 391.423 35.6785 391.423 35.72V41.2031C391.423 41.2446 391.423 41.2654 391.423 41.2654C391.423 41.2654 391.402 41.2654 391.361 41.2654H385.878C385.836 41.2654 385.815 41.2654 385.815 41.2654C385.815 41.2654 385.815 41.2446 385.815 41.2031V35.72C385.815 35.6785 385.815 35.6577 385.815 35.6577C385.815 35.6577 385.836 35.6577 385.878 35.6577ZM392.108 35.6577H397.591C397.633 35.6577 397.654 35.6577 397.654 35.6577C397.654 35.6577 397.654 35.6785 397.654 35.72V41.2031C397.654 41.2446 397.654 41.2654 397.654 41.2654C397.654 41.2654 397.633 41.2654 397.591 41.2654H392.108C392.067 41.2654 392.046 41.2654 392.046 41.2654C392.046 41.2654 392.046 41.2446 392.046 41.2031V35.72C392.046 35.6785 392.046 35.6577 392.046 35.6577C392.046 35.6577 392.067 35.6577 392.108 35.6577ZM398.339 35.6577H403.822C403.864 35.6577 403.884 35.6577 403.884 35.6577C403.884 35.6577 403.884 35.6785 403.884 35.72V41.2031C403.884 41.2446 403.884 41.2654 403.884 41.2654C403.884 41.2654 403.864 41.2654 403.822 41.2654H398.339C398.298 41.2654 398.277 41.2654 398.277 41.2654C398.277 41.2654 398.277 41.2446 398.277 41.2031V35.72C398.277 35.6785 398.277 35.6577 398.277 35.6577C398.277 35.6577 398.298 35.6577 398.339 35.6577ZM379.647 41.8885H385.13C385.171 41.8885 385.192 41.8885 385.192 41.8885C385.192 41.8885 385.192 41.9092 385.192 41.9508V47.4338C385.192 47.4754 385.192 47.4962 385.192 47.4962C385.192 47.4962 385.171 47.4962 385.13 47.4962H379.647C379.605 47.4962 379.584 47.4962 379.584 47.4962C379.584 47.4962 379.584 47.4754 379.584 47.4338V41.9508C379.584 41.9092 379.584 41.8885 379.584 41.8885C379.584 41.8885 379.605 41.8885 379.647 41.8885ZM404.57 41.8885H410.053C410.094 41.8885 410.115 41.8885 410.115 41.8885C410.115 41.8885 410.115 41.9092 410.115 41.9508V47.4338C410.115 47.4754 410.115 47.4962 410.115 47.4962C410.115 47.4962 410.094 47.4962 410.053 47.4962H404.57C404.528 47.4962 404.508 47.4962 404.508 47.4962C404.508 47.4962 404.508 47.4754 404.508 47.4338V41.9508C404.508 41.9092 404.508 41.8885 404.508 41.8885C404.508 41.8885 404.528 41.8885 404.57 41.8885ZM379.647 48.1192H385.13C385.171 48.1192 385.192 48.1192 385.192 48.1192C385.192 48.1192 385.192 48.14 385.192 48.1815V53.6646C385.192 53.7062 385.192 53.7269 385.192 53.7269C385.192 53.7269 385.171 53.7269 385.13 53.7269H379.647C379.605 53.7269 379.584 53.7269 379.584 53.7269C379.584 53.7269 379.584 53.7062 379.584 53.6646V48.1815C379.584 48.14 379.584 48.1192 379.584 48.1192C379.584 48.1192 379.605 48.1192 379.647 48.1192ZM379.647 54.35H385.13C385.171 54.35 385.192 54.35 385.192 54.35C385.192 54.35 385.192 54.3708 385.192 54.4123V59.8954C385.192 59.9369 385.192 59.9577 385.192 59.9577C385.192 59.9577 385.171 59.9577 385.13 59.9577H379.647C379.605 59.9577 379.584 59.9577 379.584 59.9577C379.584 59.9577 379.584 59.9369 379.584 59.8954V54.4123C379.584 54.3708 379.584 54.35 379.584 54.35C379.584 54.35 379.605 54.35 379.647 54.35ZM404.57 54.35H410.053C410.094 54.35 410.115 54.35 410.115 54.35C410.115 54.35 410.115 54.3708 410.115 54.4123V59.8954C410.115 59.9369 410.115 59.9577 410.115 59.9577C410.115 59.9577 410.094 59.9577 410.053 59.9577H404.57C404.528 59.9577 404.508 59.9577 404.508 59.9577C404.508 59.9577 404.508 59.9369 404.508 59.8954V54.4123C404.508 54.3708 404.508 54.35 404.508 54.35C404.508 54.35 404.528 54.35 404.57 54.35ZM385.878 60.5808H391.361C391.402 60.5808 391.423 60.5808 391.423 60.5808C391.423 60.5808 391.423 60.6015 391.423 60.6431V66.1262C391.423 66.1677 391.423 66.1885 391.423 66.1885C391.423 66.1885 391.402 66.1885 391.361 66.1885H385.878C385.836 66.1885 385.815 66.1885 385.815 66.1885C385.815 66.1885 385.815 66.1677 385.815 66.1262V60.6431C385.815 60.6015 385.815 60.5808 385.815 60.5808C385.815 60.5808 385.836 60.5808 385.878 60.5808ZM392.108 60.5808H397.591C397.633 60.5808 397.654 60.5808 397.654 60.5808C397.654 60.5808 397.654 60.6015 397.654 60.6431V66.1262C397.654 66.1677 397.654 66.1885 397.654 66.1885C397.654 66.1885 397.633 66.1885 397.591 66.1885H392.108C392.067 66.1885 392.046 66.1885 392.046 66.1885C392.046 66.1885 392.046 66.1677 392.046 66.1262V60.6431C392.046 60.6015 392.046 60.5808 392.046 60.5808C392.046 60.5808 392.067 60.5808 392.108 60.5808ZM398.339 60.5808H403.822C403.864 60.5808 403.884 60.5808 403.884 60.5808C403.884 60.5808 403.884 60.6015 403.884 60.6431V66.1262C403.884 66.1677 403.884 66.1885 403.884 66.1885C403.884 66.1885 403.864 66.1885 403.822 66.1885H398.339C398.298 66.1885 398.277 66.1885 398.277 66.1885C398.277 66.1885 398.277 66.1677 398.277 66.1262V60.6431C398.277 60.6015 398.277 60.5808 398.277 60.5808C398.277 60.5808 398.298 60.5808 398.339 60.5808Z" fill="#615FFF"/>
<defs>
<clipPath id="clip0_474_91">
<rect width="90" height="90" fill="white"/>
</clipPath>
</defs>
</svg>
